<?xml version="1.0" encoding="utf-8"?>
<!-- Generator: Adobe Illustrator 22.0.0, SVG Export Plug-In . SVG Version: 6.00 Build 0)  -->
<svg version="1.1" id="Capa_1" xmlns="http://www.w3.org/2000/svg" xmlns:xlink="http://www.w3.org/1999/xlink" x="0px" y="0px"
	 viewBox="0 0 100 100" style="enable-background:new 0 0 100 100;" xml:space="preserve">
<style type="text/css">
	.st0{fill:#646464;}
</style>
<path class="st0" d="M79.6,73.9L58.5,52.8c-1.6-1.6-1.6-4.1,0-5.7l21.1-21.1c1.6-1.6,1.6-4.1,0-5.7l0,0c-1.6-1.6-4.1-1.6-5.7,0
	L52.8,41.5c-1.6,1.6-4.1,1.6-5.7,0L26.1,20.4c-1.6-1.6-4.1-1.6-5.7,0l0,0c-1.6,1.6-1.6,4.1,0,5.7l21.1,21.1c1.6,1.6,1.6,4.1,0,5.7
	L20.4,73.9c-1.6,1.6-1.6,4.1,0,5.7l0,0c1.6,1.6,4.1,1.6,5.7,0l21.1-21.1c1.6-1.6,4.1-1.6,5.7,0l21.1,21.1c1.6,1.6,4.1,1.6,5.7,0h0
	C81.1,78,81.1,75.5,79.6,73.9z"/>
</svg>
