<?xml version="1.0" encoding="utf-8"?>
<!-- Generator: Adobe Illustrator 22.0.0, SVG Export Plug-In . SVG Version: 6.00 Build 0)  -->
<svg version="1.1" id="Capa_1" xmlns="http://www.w3.org/2000/svg" xmlns:xlink="http://www.w3.org/1999/xlink" x="0px" y="0px"
	 viewBox="0 0 1920 1080" style="enable-background:new 0 0 1920 1080;" xml:space="preserve">
<style type="text/css">
	.st0{fill:url(#_Rectángulo__1_);}
	.st1{fill:url(#SVGID_1_);}
</style>
<title>background1</title>
<linearGradient id="_Rectángulo__1_" gradientUnits="userSpaceOnUse" x1="961" y1="1112.58" x2="961" y2="33.08" gradientTransform="matrix(1 0 0 -1 0 1080)">
	<stop  offset="0" style="stop-color:#9FC7D3"/>
	<stop  offset="0.32" style="stop-color:#C0D5DF"/>
	<stop  offset="0.77" style="stop-color:#E9E6EE"/>
	<stop  offset="1" style="stop-color:#F9EDF4"/>
</linearGradient>
<rect id="_Rectángulo_" x="-54" y="0.5" class="st0" width="2030" height="1079.5"/>
<linearGradient id="SVGID_1_" gradientUnits="userSpaceOnUse" x1="959.835" y1="43.7" x2="959.835" y2="526.68" gradientTransform="matrix(1 0 0 -1 0 1080)">
	<stop  offset="0" style="stop-color:#9FC7D3"/>
	<stop  offset="0.32" style="stop-color:#C0D5DF"/>
	<stop  offset="0.77" style="stop-color:#E9E6EE"/>
	<stop  offset="1" style="stop-color:#F9EDF4"/>
</linearGradient>
<path class="st1" d="M1893.1,510.1c-7.9,0-15.7,2.3-22.2,6.7c-6.7-8.7-19.4-14.6-34.1-14.6c-21.5,0-39,12.7-39,28.4
	c0,3.1,0.7,6.2,2,9c-3.2-0.7-6.4-1-9.6-1c-1.4,0-2.8,0.1-4.2,0.2c-3.9-1.7-8.2-2.6-12.5-2.4l-9.6,1.3c-1.9,0.5-3.8,1.2-5.6,2
	c-0.6-0.4-1.1-0.7-1.7-1.1c0-0.5,0-1,0-1.5c-0.4-8.9-4-17.3-10.1-23.7l-7-5.3c-4.7-2.7-10-4.2-15.4-4.5
	c-5.6-8.6-15.2-13.7-25.5-13.6c-14.2,0-27.9,10.8-30.4,24.4c-3.7,1.5-7,3.7-9.7,6.5l-5.6,7.1c-3.2,5.3-4.9,11.4-4.9,17.7
	c0.4,3.1,0.9,6.2,1.3,9.3c0.5,1.7,1.1,3.3,1.8,4.9c-10.3,4.9-18.4,14.3-20.3,25.3c-0.6,0-1.3-0.1-1.9-0.1c-17.1,0-31,12.3-31,27.4
	c0,3.6,0.8,7.2,2.4,10.5c-3.1-0.5-6.3-0.8-9.5-0.8c-19.1,0-35.3,9.6-40.2,22.7c-9.2,3.8-15.7,12.2-15.7,22c0,0.4,0,0.8,0,1.2
	c-9.3,3-16.5,8.5-19.7,15.3c-6.9-6.3-17.4-10.3-29.2-10.3c-17,0-31.3,8.4-36,19.8c-2.7-0.7-5.5-1-8.2-0.9l-9.6,1.3
	c-6,1.6-11.4,4.7-15.9,9l-1.1,1.4c-0.9-0.1-1.8-0.1-2.8-0.1c-4.9,0-9.7,1.3-13.9,3.8c-0.6-0.6-1.3-1.2-1.9-1.8l-0.9-6.3
	c-1.7-5.8-4.9-11.1-9.2-15.3c-2.4-1.8-4.8-2.9-7.3-4.7c-5.6-3.2-11.7-3.8-18.1-3.8h-1.5c-5-1.9-9.6-0.1-13.8,2.1
	c-2.8,0.9-5.4,1.5-7.8,3.2c-3.4-0.9-6.9-1.4-10.4-1.5h-0.3c-1.8-4.7-4.6-8.9-8.2-12.4c-2.4-1.8-4.8-2.8-7.3-4.6
	c-5.6-3.2-11.7-3.7-18.1-3.7h-1.5c-5-1.9-9.6-0.3-13.8,1.9c-4.4,1.4-8.3,3-11.6,6.5c-0.2,0.2-0.4,0.3-0.6,0.5
	c-0.3-2.2-0.6-4.4-0.9-6.6c-1.7-5.8-4.9-11.1-9.2-15.4c-2.4-1.8-4.8-3.3-7.3-5.1c-5.6-3.2-11.7-4.2-18.1-4.2h-1.5
	c-5-1.9-9.6,0.2-13.8,2.4c-4.5,1.4-8.3,3.3-11.6,6.7c-3.4,3-6,6.9-7.4,11.3c-0.3,0.6-0.6,1.2-0.9,1.8c-5.6-2.4-11.7-3.6-17.9-3.5
	c-6.4,0-12.3,2.3-17.2,4.4c-1-0.1-2.1,1.2-3.1,1.2h-1.5c-5-1.9-9.6-0.5-13.8,1.7c-4.4,1.4-8.3,2.9-11.6,6.3
	c-5.2,5.5-8.8,12.3-10.3,19.7c-15,3.7-25.9,12.1-27.7,22.3c-4.7-3.6-10.4-5.4-16.2-5.4c-0.8,0-1.6,0-2.3,0.1
	c-6.5-5.8-14.9-8.9-23.6-8.9c-17.4,0-34.1,13.8-35.8,30.9c-2.2-0.6-4.5-0.9-6.7-1.1c-5.8-8.6-15.5-13.7-25.8-13.6
	c-8.3,0-15.2,3.7-22.1,9.4c-6.9-5.8-13.8-9.4-22.1-9.4c-10.3,0-19.9,5.1-25.7,13.6c-2.3,0.1-4.5,0.5-6.7,1.1
	c-1.7-17.1-18.3-30.9-35.8-30.9c-8.7-0.1-17.1,3.1-23.5,8.9c-0.8-0.1-1.6-0.1-2.4-0.1c-5.9-0.1-11.6,1.8-16.2,5.4
	c-1.8-10.2-12.8-18.7-27.7-22.3c-0.4-3-1.4-6-2.9-8.7c-1.5-4.3-4-8.1-7.4-11c-3.3-3.4-7.1-4.9-11.6-6.3c-4.3-2.2-8.9-3.5-13.8-1.7
	h-1.5c-1.1,0-2.1-1.3-3.1-1.2c-4.8-2.1-10.8-4.4-17.2-4.4c-6.1-0.1-12.2,1.1-17.9,3.5c-0.3-0.6-0.6-1.3-0.9-1.8
	c-1.4-4.3-4-8.2-7.4-11.3c-3.3-3.4-7.1-5.3-11.6-6.7c-4.3-2.2-8.9-4.3-13.8-2.4h-1.5c-6.5,0-12.5,1-18.1,4.2
	c-2.4,1.8-4.8,3.3-7.3,5.1c-4.4,4.2-7.6,9.5-9.3,15.4c-0.3,2.2-0.6,4.4-0.9,6.6c-0.2-0.2-0.4-0.3-0.6-0.5c-3.3-3.4-7.1-5-11.6-6.5
	c-4.3-2.2-8.9-3.8-13.8-1.9H626c-6.5,0-12.5,0.5-18.1,3.7c-2.4,1.8-4.8,2.8-7.3,4.6c-3.6,3.5-6.4,7.7-8.2,12.4H592
	c-3.5,0-7,0.5-10.4,1.5c-2.3-1.7-5-2.3-7.8-3.2c-4.3-2.2-8.9-3.9-13.8-2.1h-1.5c-6.5,0-12.5,0.6-18.1,3.8c-2.4,1.8-4.8,2.9-7.3,4.7
	c-4.4,4.2-7.6,9.5-9.3,15.3c-0.3,2.1-0.6,4.2-0.9,6.3c-0.7,0.6-1.3,1.2-1.9,1.8c-4.2-2.5-9-3.9-13.9-3.8c-0.9,0-1.9,0-2.8,0.1
	l-1.1-1.4c-4.4-4.3-9.9-7.4-15.9-9l-9.6-1.2c-2.8-0.1-5.5,0.2-8.2,0.9c-4.6-11.5-19-19.8-36-19.8c-11.8,0-22.3,4-29.2,10.3
	c-3.1-6.8-10.3-12.3-19.6-15.3c0-0.4,0-0.8,0-1.2c0-9.8-6.4-18.2-15.7-22c-5-13.1-21.1-22.7-40.2-22.7c-3.2,0-6.4,0.3-9.5,0.8
	c1.6-3.3,2.4-6.9,2.4-10.5c0-15.1-13.9-27.4-31-27.4c-0.6,0-1.3,0-1.9,0.1c-1.9-11-10-20.5-20.3-25.3c0.7-1.6,1.3-3.2,1.8-4.9
	l1.3-9.3c0-6.2-1.7-12.3-4.9-17.6l-5.6-7.1c-2.7-2.9-6-5.1-9.7-6.5c-2.5-13.6-16.2-24.4-30.4-24.4c-10.2-0.1-19.8,5.1-25.4,13.6
	c-5.4,0.3-10.7,1.8-15.4,4.5l-7,5.3c-3.3,2.9-5.7,6.6-7.1,10.8c-2.2,4-3.2,8.4-3,12.9c0,0.5,0,1,0,1.5c-0.6,0.3-1.1,0.7-1.7,1.1
	c-1.8-0.8-3.7-1.5-5.6-2l-9.6-1.3c-4.3-0.2-8.6,0.6-12.5,2.4c-1.4-0.1-2.8-0.2-4.2-0.2c-3.2,0-6.5,0.3-9.6,1c1.3-2.8,2-5.9,2-9
	c0-15.7-17.4-28.4-39-28.4c-14.7,0-27.4,5.9-34.1,14.6c-6.6-4.4-14.3-6.7-22.2-6.7c-10-0.1-19.6,3.7-26.9,10.5v559.7H1920V520.6
	C1912.7,513.8,1903.1,510,1893.1,510.1z"/>
</svg>
