<svg xmlns="http://www.w3.org/2000/svg" xmlns:xlink="http://www.w3.org/1999/xlink" viewBox="0 0 1920 1080"><defs><style>.cls-1{fill:url(#linear-gradient);}.cls-2{fill:url(#linear-gradient-2);}.cls-3{fill:url(#linear-gradient-3);}.cls-4{fill:url(#linear-gradient-4);}.cls-5{fill:url(#linear-gradient-5);}.cls-6{fill:url(#linear-gradient-6);}.cls-7{fill:url(#linear-gradient-7);}</style><linearGradient id="linear-gradient" x1="1016.95" y1="470.87" x2="1016.95" y2="376.93" gradientUnits="userSpaceOnUse"><stop offset="0" stop-color="#9fc7d3"/><stop offset="0.32" stop-color="#c0d5df"/><stop offset="0.77" stop-color="#e9e6ee"/><stop offset="1" stop-color="#f9edf4"/></linearGradient><linearGradient id="linear-gradient-2" x1="1693.05" y1="453.53" x2="1693.05" y2="332.71" xlink:href="#linear-gradient"/><linearGradient id="linear-gradient-3" x1="608.06" y1="119.89" x2="608.06" y2="36.53" xlink:href="#linear-gradient"/><linearGradient id="linear-gradient-4" x1="174.98" y1="298.76" x2="174.98" y2="250.25" xlink:href="#linear-gradient"/><linearGradient id="linear-gradient-5" x1="1414.31" y1="67.52" x2="1414.31" y2="138.43" gradientUnits="userSpaceOnUse"><stop offset="0" stop-color="#f9edf4"/><stop offset="0.23" stop-color="#e9e6ee"/><stop offset="0.68" stop-color="#c0d5df"/><stop offset="1" stop-color="#9fc7d3"/></linearGradient><linearGradient id="linear-gradient-6" x1="872.35" y1="97.59" x2="872.35" y2="168.48" xlink:href="#linear-gradient-5"/><linearGradient id="linear-gradient-7" x1="867.98" y1="97.57" x2="867.98" y2="168.49" xlink:href="#linear-gradient-5"/></defs><title>background2</title><g id="Capa_3" data-name="Capa 3"><path class="cls-1" d="M1107,432.62a3.84,3.84,0,0,0-2.64-4.49c-.74-.21-1.47-.36-2.21-.57a3.74,3.74,0,0,0-1.16-.07,3.84,3.84,0,0,0-1.72-.56,4.31,4.31,0,0,0-.62-.49,7.68,7.68,0,0,0-5.75-1l-.13,0a3.25,3.25,0,0,0-1.07-.9l-.63-.32a4.3,4.3,0,0,0-2.29-.51,3.69,3.69,0,0,0-3.06-1.66h-1a2.29,2.29,0,0,0-.36.07c-.08-.07-.16,0-.24-.1a2.91,2.91,0,0,0-.94-.73l-.63-.3a4.84,4.84,0,0,0-.8-.3l-.44-.17a3.71,3.71,0,0,0-.84-3.92l-.32-.31c-1.34-1.35-3.74-2-5.15-.7,0,0,0-.55,0-.55h-1a3.29,3.29,0,0,0-1.82.42,3.77,3.77,0,0,0-1.33-.42h-.63c-.13,0-.27.33-.4.35a3.58,3.58,0,0,0-2.11-.35H1067c-.21,0-.42-.18-.63-.23a4.56,4.56,0,0,0-.44-1.48c-.1-.21-.21-.44-.32-.65a3.78,3.78,0,0,0-5.16-1.37c-.12.08-.22.17-.33.25l-.17,0a4.73,4.73,0,0,0-.89.41,4,4,0,0,0-.11-.68,7.77,7.77,0,0,0-1.85-3.71,3.64,3.64,0,0,0-2.38-1.08,3.08,3.08,0,0,0-.85-.66l-.9-.46a4,4,0,0,0-2.91-.38l-.24.09a2.58,2.58,0,0,0-.72-.26,5.09,5.09,0,0,0-2.36,0,3.36,3.36,0,0,0-.47-.6l-.45-.45a3.49,3.49,0,0,0-.86-.62,3.79,3.79,0,0,0-1.44-1.56,3.91,3.91,0,0,0-2.92-.38,3.08,3.08,0,0,0-.38.16l-.31-.73a3.82,3.82,0,0,0-1.35-1.36,4.72,4.72,0,0,0-2-.83,9,9,0,0,0-1.36-.12,11.88,11.88,0,0,0-14.36.32c-.11,0-.2,0-.3,0a4,4,0,0,0-1.52.34,3.77,3.77,0,0,0-3.62.42,3.18,3.18,0,0,1-.4.23,3.83,3.83,0,0,0-1.79,1.54,1.17,1.17,0,0,0,0,.11,3.86,3.86,0,0,0-2.57,2.68,3.2,3.2,0,0,0-.27.25l-.43-.09a4.24,4.24,0,0,0-1.67-1l-2.23-.76a3.89,3.89,0,0,0-2.91.38,2.78,2.78,0,0,0-.34.26,3,3,0,0,0-1.68.53,22.35,22.35,0,0,1-3.43,2,3.79,3.79,0,0,0-1.69,2.13,3.17,3.17,0,0,0-2.36,1.73,10,10,0,0,0-1,3.84,3.89,3.89,0,0,0-1.32.37,4.28,4.28,0,0,0-1.67,0l-2.55.51a3.63,3.63,0,0,0-2.61,2.66,4.11,4.11,0,0,0-.74.87l-.32.18a3.74,3.74,0,0,0-2.7.28,3.82,3.82,0,0,0-2,.49,3.89,3.89,0,0,0-1.21,1.15,2.59,2.59,0,0,0-.48,0,12.8,12.8,0,0,0-4.28,1.75,4.07,4.07,0,0,0-1,1.93,2.57,2.57,0,0,0-.47-.15l-1-.14a3.75,3.75,0,0,0-1.91.52l-2,.91a3.72,3.72,0,0,0-1.64,2h-.1a4,4,0,0,0-3.28-.83,3.64,3.64,0,0,0-2.7.47,2.87,2.87,0,0,0-.43-.28,3.64,3.64,0,0,0-2.91-.37,6.14,6.14,0,0,1-1,.3,5.78,5.78,0,0,1-.93,0,3.33,3.33,0,0,0-1.86.5,4.94,4.94,0,0,0-2.33.42c-2.24,1-4.33,1.58-6.27,3.06,0,0-.06-.63-.09-.63h-.63c-1,0-2,.91-2.69,1.62,0,0-.06.21-.1.2a5.64,5.64,0,0,0-4,.4,3.73,3.73,0,0,0-2.12,0c-.42.11-.84.25-1.26.35a1.21,1.21,0,0,0-.37.25c-.15-.05-.31-.09-.46-.15a3.62,3.62,0,0,0-2.57.09c-.67.13-1.3.75-1.81.75Zm-48.75-12.44a4.35,4.35,0,0,0,.46-.11,3.35,3.35,0,0,0,.22.63,7.42,7.42,0,0,0-1.07.34C1058,420.76,1058.12,420.47,1058.24,420.18Z"/><path class="cls-2" d="M1830,404.5a11.57,11.57,0,0,0-1.48-1.66,16.69,16.69,0,0,0-9.49-4.52,15.07,15.07,0,0,0-10.34-4.16,15.28,15.28,0,0,0-11.2,5,4.92,4.92,0,0,0-4.75-4.44,4.68,4.68,0,0,0-2.62.91,14.88,14.88,0,0,0-14.35-12.33,14.05,14.05,0,0,0-5.1,1,15.1,15.1,0,0,0,1.76-7c0-8.11-6.22-14.68-13.89-14.68a13.51,13.51,0,0,0-9.89,4.38,8.83,8.83,0,0,0-3.43-2.2,6.38,6.38,0,0,0-.83-4.72l-1.3-1.73a7.59,7.59,0,0,0-4.18-3.22,6,6,0,0,0-.61-.1,6.93,6.93,0,0,0-1.89-5.91l-1.27-1.33a6.45,6.45,0,0,0-2-1.34,24.09,24.09,0,0,0-2.56-2.59,5.65,5.65,0,0,0-.24-1.61c-1.12-3.48-4.88-6.1-8.61-4.89l-3,1-.08,0a22.36,22.36,0,0,0-2.85-.2c-.28,0-.56,0-.84,0a6.6,6.6,0,0,0-4.33-1.49,6.38,6.38,0,0,0-6.43,4.79,23.67,23.67,0,0,0-6.33,5.69,9,9,0,0,0-1.08-.1c-5.62,0-7.74,5.46-6.34,9.56a6.53,6.53,0,0,0-5.11,2.74,17,17,0,0,0-13.27-6.55c-9.22,0-16.77,7.56-17.42,17.14a7.06,7.06,0,0,0-2.38-.41,6.47,6.47,0,0,0-6.64,5.64c-.61-.05-1.22-.08-1.84-.08a22,22,0,0,0-19.45,12.23,6.93,6.93,0,0,0-4.73-1.9,7.2,7.2,0,0,0-6.57,4.51,6.8,6.8,0,0,0-3.28-.93,6.31,6.31,0,0,0-5.9-3.48c-5.12,0-7.32,4.52-6.61,8.42a6.82,6.82,0,0,0-3.77-1.07,6.44,6.44,0,0,0-5.06,2.18,9.15,9.15,0,0,0-5.23,1.4l-.39.26a7.07,7.07,0,0,0-2.28-.38,6.77,6.77,0,0,0-3.36.84,12.42,12.42,0,0,0-1.47.22l-2.63.56a10.65,10.65,0,0,0-6.28,4.82,11.72,11.72,0,0,0-.41,1.14,7,7,0,0,0-5-2.24,6.09,6.09,0,0,0-5.32,2.78Z"/><path class="cls-3" d="M728.75,103a11.72,11.72,0,0,0-6.44-3.27,10.08,10.08,0,0,0-14.59.4,3.36,3.36,0,0,0-3.22-3,3.07,3.07,0,0,0-1.77.61A10.09,10.09,0,0,0,693,89.29a9.51,9.51,0,0,0-3.45.68,10.15,10.15,0,0,0,1.19-4.74,9.7,9.7,0,0,0-9.41-10,9.15,9.15,0,0,0-6.7,3,6.13,6.13,0,0,0-2.32-1.49,4.33,4.33,0,0,0-.57-3.2l-.88-1.17A5.16,5.16,0,0,0,668,70.21a2.93,2.93,0,0,0-.41-.07,4.71,4.71,0,0,0-1.28-4c-.29-.3-.58-.59-.86-.89a4.31,4.31,0,0,0-1.33-.91,16.07,16.07,0,0,0-1.74-1.76,3.88,3.88,0,0,0-.16-1.09,4.82,4.82,0,0,0-5.84-3.31l-2,.66,0,0a13.81,13.81,0,0,0-1.93-.14c-.2,0-.38,0-.57,0a4.44,4.44,0,0,0-2.94-1A4.32,4.32,0,0,0,644.54,61a16,16,0,0,0-4.28,3.86,5.65,5.65,0,0,0-.73-.07c-3.82,0-5.25,3.69-4.3,6.47a4.44,4.44,0,0,0-3.46,1.86,11.36,11.36,0,0,0-18.09.09l-.6-.8a5.15,5.15,0,0,0-2.84-2.18,2.7,2.7,0,0,0-.41-.07,4.71,4.71,0,0,0-1.28-4l-.86-.89a4.31,4.31,0,0,0-1.33-.91,16.07,16.07,0,0,0-1.74-1.76,3.55,3.55,0,0,0-.15-1.09c-.77-2.35-3.31-4.13-5.84-3.31l-2,.66-.05,0a13.7,13.7,0,0,0-1.93-.14c-.19,0-.38,0-.57,0a4.41,4.41,0,0,0-2.94-1A4.31,4.31,0,0,0,586.76,61a15.94,15.94,0,0,0-4.29,3.86,5.65,5.65,0,0,0-.73-.07c-3.81,0-5.25,3.69-4.3,6.47A4.45,4.45,0,0,0,574,73.1a11.53,11.53,0,0,0-9-4.44c-6.25,0-11.36,5.13-11.8,11.62a4.76,4.76,0,0,0-1.61-.29,4.4,4.4,0,0,0-4.51,3.83c-.41,0-.82-.06-1.24-.06a14.9,14.9,0,0,0-13.18,8.29,4.72,4.72,0,0,0-3.2-1.29A4.88,4.88,0,0,0,525,93.82a4.6,4.6,0,0,0-2.22-.63,4.27,4.27,0,0,0-4-2.36c-3.47,0-4.95,3.06-4.48,5.71a4.51,4.51,0,0,0-2.54-.73,4.37,4.37,0,0,0-3.44,1.48,6.28,6.28,0,0,0-3.54.94l-.26.18a5,5,0,0,0-1.55-.26,4.64,4.64,0,0,0-2.28.57c-.32,0-.66.09-1,.16l-1.78.37a7.24,7.24,0,0,0-4.26,3.27c-.13.24-.16.51-.27.77A4.47,4.47,0,0,0,490,102.2a3.44,3.44,0,0,0-3.61,2.3H729.75C729.45,102.75,729.12,103.3,728.75,103Z"/><path class="cls-4" d="M301.46,282.15a11.93,11.93,0,0,0-6.9-3.11,10.79,10.79,0,0,0-7.5-2.94,11.13,11.13,0,0,0-8.14,3.67,3.55,3.55,0,0,0-3.44-3.21,3.41,3.41,0,0,0-1.91.68,10.8,10.8,0,0,0-10.42-8.95,10.21,10.21,0,0,0-3.7.74,11,11,0,0,0,1.27-5.08c0-5.89-4.51-10.66-10.08-10.66a9.8,9.8,0,0,0-7.18,3.18,6.48,6.48,0,0,0-2.49-1.59,4.62,4.62,0,0,0-.61-3.44l-.94-1.25a5.55,5.55,0,0,0-3-2.34c-.13,0-.29,0-.44-.07a5,5,0,0,0-1.37-4.3c-.31-.31-.61-.63-.92-.95a4.67,4.67,0,0,0-1.43-1,17.38,17.38,0,0,0-1.86-1.88,4,4,0,0,0-.17-1.17c-.81-2.52-3.54-4.43-6.25-3.55l-2.18.7,0,0a15.76,15.76,0,0,0-2.07-.15c-.21,0-.41,0-.61,0a4.77,4.77,0,0,0-3.15-1.08,4.64,4.64,0,0,0-4.67,3.47,17.39,17.39,0,0,0-4.59,4.14,4.79,4.79,0,0,0-.78-.08c-4.09,0-5.63,4-4.61,6.94a4.78,4.78,0,0,0-3.71,2,12.37,12.37,0,0,0-9.64-4.76c-6.69,0-12.17,5.5-12.64,12.45a5.49,5.49,0,0,0-1.73-.3,4.91,4.91,0,0,0-2.32.55,3.91,3.91,0,0,0-1.84-.64,2.8,2.8,0,0,0-.81-.63l-.86-.44a3.82,3.82,0,0,0-2.77-.36l-.23.09a2.64,2.64,0,0,0-.68-.25,4.75,4.75,0,0,0-2.25,0,3.05,3.05,0,0,0-.45-.57l-.43-.43a3.17,3.17,0,0,0-.82-.59,3.57,3.57,0,0,0-1.37-1.49,3.7,3.7,0,0,0-2.78-.36l-.37.15c-.09-.23-.19-.46-.29-.69a3.57,3.57,0,0,0-1.29-1.3,4.57,4.57,0,0,0-1.87-.79,9.67,9.67,0,0,0-1.3-.12,11.33,11.33,0,0,0-13.69.31,2.85,2.85,0,0,0-.29,0,3.86,3.86,0,0,0-1.45.31,3.63,3.63,0,0,0-3.45.41,2.71,2.71,0,0,1-.37.21,3.73,3.73,0,0,0-1.71,1.48.36.36,0,0,0,0,.09,3.71,3.71,0,0,0-2.46,2.56,3,3,0,0,0-.26.24,2.7,2.7,0,0,0-.41-.08,4,4,0,0,0-1.58-1l-2.13-.72a3.63,3.63,0,0,0-2.77.37,1.85,1.85,0,0,0-.33.24,2.91,2.91,0,0,0-1.6.51,22.37,22.37,0,0,1-3.26,1.87,3.57,3.57,0,0,0-1.62,2,3,3,0,0,0-2.25,1.64,9.43,9.43,0,0,0-.93,3.67,3.75,3.75,0,0,0-1.26.34,4.32,4.32,0,0,0-1.6,0l-2.42.49a3.62,3.62,0,0,0-2.15,1.66,3.36,3.36,0,0,0-.34.87,4.11,4.11,0,0,0-.71.84l-.3.17a3.54,3.54,0,0,0-2.57.26,3.64,3.64,0,0,0-1.91.47,3.87,3.87,0,0,0-1.15,1.1,2.28,2.28,0,0,0-.45,0,4.08,4.08,0,0,0-2.07.63,3.65,3.65,0,0,0-3,2.88,2.28,2.28,0,0,0-.44-.15l-1-.13a3.65,3.65,0,0,0-1.82.49l-1.93.87a3.5,3.5,0,0,0-1.56,1.87h-.1a3.75,3.75,0,0,0-3.13-.79,3.49,3.49,0,0,0-2.57.44,2.85,2.85,0,0,0-.41-.26,3.51,3.51,0,0,0-2.77-.36,7.07,7.07,0,0,1-1,.3,5.3,5.3,0,0,1-.89,0,3.18,3.18,0,0,0-1.77.48,4.64,4.64,0,0,0-2.23.4c-2.13.92-4.12,1.4-6,2.81,0,0-.05-.7-.08-.7h-.6c-1,0-1.89,1-2.57,1.65,0,0-.06.25-.09.24a5.43,5.43,0,0,0-3.79.4,3.65,3.65,0,0,0-2,0c-.4.1-.8.24-1.2.34a1.29,1.29,0,0,0-.35.24c-.15-.05-.3-.08-.44-.14a3.4,3.4,0,0,0-2.45.07c-.64.11-1.24.69-1.73.69H302.53C302.21,283,301.86,282.52,301.46,282.15Z"/><path class="cls-5" d="M1571.11,132.5c-.38,0-.78-.63-1.24-1.05a13.79,13.79,0,0,0-8-3.63,12.58,12.58,0,0,0-8.67-3.4,12.83,12.83,0,0,0-9.39,4.22,4.11,4.11,0,0,0-4-3.71,3.89,3.89,0,0,0-2.2.78,12.47,12.47,0,0,0-12-10.33,11.73,11.73,0,0,0-4.27.85,12.63,12.63,0,0,0,1.47-5.86c0-6.8-5.22-12.31-11.65-12.31a11.31,11.31,0,0,0-8.28,3.67,7.49,7.49,0,0,0-2.88-1.84,5.34,5.34,0,0,0-.7-4c-.36-.48-.72-1-1.09-1.45a6.4,6.4,0,0,0-3.51-2.7c-.15,0-.33,0-.5-.08a5.82,5.82,0,0,0-1.59-5l-1.06-1.11a5.3,5.3,0,0,0-1.65-1.12,19.24,19.24,0,0,0-2.15-2.18,4.87,4.87,0,0,0-.19-1.34c-.94-2.92-4.1-5.12-7.22-4.1l-2.51.81-.07,0a18.81,18.81,0,0,0-2.39-.16c-.23,0-.46,0-.7,0a5.51,5.51,0,0,0-3.63-1.25,5.37,5.37,0,0,0-5.4,4,20.09,20.09,0,0,0-5.3,4.78,6.38,6.38,0,0,0-.9-.09c-4.72,0-6.49,4.57-5.32,8a5.53,5.53,0,0,0-4.29,2.3,14.28,14.28,0,0,0-11.12-5.49A14.7,14.7,0,0,0,1425,100.13a11.13,11.13,0,0,0-6.47-2.07,11.31,11.31,0,0,0-8.28,3.67,7.49,7.49,0,0,0-2.88-1.84,5.34,5.34,0,0,0-.7-4l-1.08-1.45a6.47,6.47,0,0,0-3.51-2.7c-.16,0-.34,0-.51-.08a5.84,5.84,0,0,0-1.58-5l-1.07-1.11a5.37,5.37,0,0,0-1.64-1.12,20.21,20.21,0,0,0-2.16-2.18,4.22,4.22,0,0,0-.19-1.34c-.94-2.92-4.09-5.12-7.22-4.1l-2.51.81-.07,0a18.65,18.65,0,0,0-2.38-.16c-.24,0-.47,0-.71,0a5.51,5.51,0,0,0-3.63-1.25,5.35,5.35,0,0,0-5.39,4,20,20,0,0,0-5.31,4.78,6.38,6.38,0,0,0-.9-.09c-4.72,0-6.49,4.57-5.32,8a5.5,5.5,0,0,0-4.28,2.3,14.31,14.31,0,0,0-11.13-5.49c-7.73,0-14.06,6.34-14.6,14.37a5.94,5.94,0,0,0-2-.35,5.44,5.44,0,0,0-5.57,4.74c-.51,0-1-.07-1.54-.07A18.44,18.44,0,0,0,1306,118.81a5.78,5.78,0,0,0-4-1.59,6,6,0,0,0-5.51,3.78,5.73,5.73,0,0,0-2.75-.78,5.28,5.28,0,0,0-5-2.92c-4.29,0-6.13,3.79-5.54,7.06a5.63,5.63,0,0,0-3.15-.9,5.4,5.4,0,0,0-4.25,1.83,7.74,7.74,0,0,0-4.38,1.17l-.33.22a6,6,0,0,0-1.92-.32,5.73,5.73,0,0,0-2.81.71,10.46,10.46,0,0,0-1.23.19l-2.21.46a9,9,0,0,0-5.26,4.06c-.13.22-.19.72-.26.72h92.35c.08,0,.18.16.25.25,0-.09.06-.25.08-.25h220.91Z"/><path class="cls-6" d="M872.44,144.89c0-.08,0-.16.08-.25h-.34C872.26,144.73,872.37,144.8,872.44,144.89Z"/><path class="cls-7" d="M863.78,144.67h8.4a4,4,0,0,0-3.93-2C866.15,142.68,864.68,144.67,863.78,144.67Z"/></g></svg>