<?xml version="1.0" encoding="utf-8"?>
<!-- Generator: Adobe Illustrator 22.0.0, SVG Export Plug-In . SVG Version: 6.00 Build 0)  -->
<svg version="1.1" id="Capa_1" xmlns="http://www.w3.org/2000/svg" xmlns:xlink="http://www.w3.org/1999/xlink" x="0px" y="0px"
	 viewBox="0 0 800 1080" style="enable-background:new 0 0 800 1080;" xml:space="preserve">
<style type="text/css">
	.st0{fill:url(#SVGID_1_);}
	.st1{fill:url(#SVGID_2_);}
	.st2{fill:url(#SVGID_3_);}
	.st3{fill:url(#SVGID_4_);}
	.st4{fill:url(#SVGID_5_);}
	.st5{fill:url(#SVGID_6_);}
	.st6{fill:url(#SVGID_7_);}
	.st7{fill:url(#SVGID_8_);}
	.st8{fill:url(#SVGID_9_);}
	.st9{fill:url(#SVGID_10_);}
	.st10{fill:url(#SVGID_11_);}
	.st11{fill:url(#SVGID_12_);}
	.st12{fill:url(#SVGID_13_);}
	.st13{fill:url(#SVGID_14_);}
	.st14{fill:url(#SVGID_15_);}
</style>
<title>background2</title>
<g id="Capa_3">
	
		<linearGradient id="SVGID_1_" gradientUnits="userSpaceOnUse" x1="447.7088" y1="862.8046" x2="447.7088" y2="901.528" gradientTransform="matrix(1 0 0 -1 0 1080)">
		<stop  offset="0" style="stop-color:#9FC7D3"/>
		<stop  offset="0.32" style="stop-color:#C0D5DF"/>
		<stop  offset="0.77" style="stop-color:#E9E6EE"/>
		<stop  offset="1" style="stop-color:#F9EDF4"/>
	</linearGradient>
	<path class="st0" d="M484.8,201.4c0.2-0.8-0.3-1.6-1.1-1.9c-0.3-0.1-0.6-0.1-0.9-0.2c-0.2,0-0.3,0-0.5,0c-0.2-0.1-0.5-0.2-0.7-0.2
		c-0.1-0.1-0.2-0.1-0.3-0.2c-0.7-0.4-1.6-0.6-2.4-0.4H479c-0.1-0.2-0.3-0.3-0.4-0.4l-0.3-0.1c-0.3-0.2-0.6-0.2-0.9-0.2
		c-0.3-0.4-0.8-0.7-1.3-0.7h-0.4c-0.1,0-0.1,0-0.1,0c0,0-0.1,0-0.1,0c-0.1-0.1-0.2-0.2-0.4-0.3l-0.3-0.1c-0.1-0.1-0.2-0.1-0.3-0.1
		l-0.2-0.1c0.2-0.6,0.1-1.2-0.3-1.6l-0.1-0.1c-0.6-0.6-1.5-0.8-2.1-0.3v-0.2h-0.4c-0.3,0-0.5,0-0.8,0.2c-0.2-0.1-0.4-0.2-0.5-0.2
		h-0.3c-0.1,0-0.1,0.1-0.2,0.1c-0.3-0.1-0.6-0.2-0.9-0.1h-0.3c-0.1,0-0.2-0.1-0.3-0.1c0-0.2-0.1-0.4-0.2-0.6c0-0.1-0.1-0.2-0.1-0.3
		c-0.4-0.7-1.4-1-2.1-0.6c0,0-0.1,0.1-0.1,0.1h-0.1c-0.1,0-0.3,0.1-0.4,0.2c0-0.1,0-0.2,0-0.3c-0.1-0.6-0.4-1.1-0.8-1.5
		c-0.3-0.3-0.6-0.4-1-0.4c-0.1-0.1-0.2-0.2-0.4-0.3l-0.4-0.2c-0.4-0.2-0.8-0.3-1.2-0.2l-0.1,0c-0.1-0.1-0.2-0.1-0.3-0.1
		c-0.3-0.1-0.7-0.1-1,0c-0.1-0.1-0.1-0.2-0.2-0.2l-0.2-0.2c-0.1-0.1-0.2-0.2-0.4-0.3c-0.1-0.3-0.3-0.5-0.6-0.6
		c-0.4-0.2-0.8-0.3-1.2-0.2c-0.1,0-0.1,0-0.2,0.1l-0.1-0.3c-0.1-0.2-0.3-0.4-0.6-0.6c-0.2-0.2-0.5-0.3-0.8-0.3c-0.2,0-0.4,0-0.6,0
		c-1.8-1.3-4.2-1.2-5.9,0.1c0,0-0.1,0-0.1,0c-0.2,0-0.4,0.1-0.6,0.1c-0.5-0.2-1.1-0.1-1.5,0.2c-0.1,0-0.1,0.1-0.2,0.1
		c-0.3,0.1-0.6,0.4-0.7,0.6c0,0,0,0,0,0c-0.5,0.2-0.9,0.6-1.1,1.1c0,0-0.1,0.1-0.1,0.1l-0.2,0c-0.2-0.2-0.4-0.3-0.7-0.4l-0.9-0.3
		c-0.4-0.1-0.8-0.1-1.2,0.2c0,0-0.1,0.1-0.1,0.1c-0.2,0-0.5,0.1-0.7,0.2c-0.4,0.3-0.9,0.6-1.4,0.8c-0.3,0.2-0.6,0.5-0.7,0.9
		c-0.4,0.1-0.8,0.3-1,0.7c-0.2,0.5-0.4,1-0.4,1.6c-0.2,0-0.4,0.1-0.5,0.2c-0.2,0-0.5,0-0.7,0l-1.1,0.2c-0.5,0.1-0.9,0.6-1.1,1.1
		c-0.1,0.1-0.2,0.2-0.3,0.4l-0.1,0.1c-0.4-0.1-0.8-0.1-1.1,0.1c-0.3,0-0.6,0.1-0.8,0.2c-0.2,0.1-0.4,0.3-0.5,0.5c-0.1,0-0.1,0-0.2,0
		c-0.6,0.1-1.2,0.4-1.8,0.7c-0.2,0.2-0.3,0.5-0.4,0.8c-0.1,0-0.1,0-0.2-0.1l-0.4-0.1c-0.3,0-0.5,0.1-0.8,0.2l-0.8,0.4
		c-0.3,0.2-0.6,0.5-0.7,0.8h0c-0.4-0.3-0.9-0.4-1.4-0.3c-0.4-0.1-0.8,0-1.1,0.2c-0.1,0-0.1-0.1-0.2-0.1c-0.4-0.2-0.8-0.3-1.2-0.2
		c-0.1,0.1-0.3,0.1-0.4,0.1c-0.1,0-0.3,0-0.4,0c-0.3,0-0.5,0.1-0.8,0.2c-0.3,0-0.7,0-1,0.2c-0.9,0.4-1.8,0.7-2.6,1.3
		c0,0,0-0.3,0-0.3h-0.3c-0.4,0-0.8,0.4-1.1,0.7c0,0,0,0.1,0,0.1c-0.6-0.1-1.1-0.1-1.6,0.2c-0.3-0.1-0.6-0.1-0.9,0
		c-0.2,0-0.3,0.1-0.5,0.1c-0.1,0-0.1,0.1-0.2,0.1c-0.1,0-0.1,0-0.2-0.1c-0.3-0.1-0.7-0.1-1.1,0c-0.3,0.1-0.5,0.3-0.7,0.3
		L484.8,201.4z M464.7,196.3c0.1,0,0.1,0,0.2,0c0,0.1,0.1,0.2,0.1,0.3c-0.2,0-0.3,0.1-0.4,0.1C464.6,196.5,464.7,196.4,464.7,196.3
		L464.7,196.3z"/>
	
		<linearGradient id="SVGID_2_" gradientUnits="userSpaceOnUse" x1="726.3945" y1="869.9523" x2="726.3945" y2="919.756" gradientTransform="matrix(1 0 0 -1 0 1080)">
		<stop  offset="0" style="stop-color:#9FC7D3"/>
		<stop  offset="0.32" style="stop-color:#C0D5DF"/>
		<stop  offset="0.77" style="stop-color:#E9E6EE"/>
		<stop  offset="1" style="stop-color:#F9EDF4"/>
	</linearGradient>
	<path class="st1" d="M782.9,189.8c-0.2-0.2-0.4-0.5-0.6-0.7c-1.1-1-2.4-1.7-3.9-1.9c-1.1-1.1-2.7-1.7-4.3-1.7
		c-1.8,0-3.4,0.8-4.6,2.1c-0.1-1-0.9-1.8-2-1.8c-0.4,0-0.8,0.1-1.1,0.4c-0.5-2.9-3-5-5.9-5.1c-0.7,0-1.4,0.1-2.1,0.4
		c0.5-0.9,0.7-1.9,0.7-2.9c0-3.3-2.6-6.1-5.7-6.1c-1.6,0-3,0.7-4.1,1.8c-0.4-0.4-0.9-0.7-1.4-0.9c0.1-0.7,0-1.4-0.3-1.9l-0.5-0.7
		c-0.4-0.6-1-1.1-1.7-1.3c-0.1,0-0.2,0-0.3,0c0.1-0.9-0.2-1.8-0.8-2.4l-0.5-0.5c-0.2-0.2-0.5-0.4-0.8-0.6c-0.3-0.4-0.7-0.7-1.1-1.1
		c0-0.2,0-0.4-0.1-0.7c-0.5-1.4-2-2.5-3.5-2l-1.2,0.4h0c-0.4-0.1-0.8-0.1-1.2-0.1c-0.1,0-0.2,0-0.3,0c-0.5-0.4-1.1-0.6-1.8-0.6
		c-1.2,0-2.3,0.8-2.7,2c-1,0.6-1.9,1.4-2.6,2.3c-0.1,0-0.3,0-0.4,0c-2.3,0-3.2,2.3-2.6,3.9c-0.8,0-1.6,0.4-2.1,1.1
		c-1.3-1.7-3.3-2.7-5.5-2.7c-3.8,0-6.9,3.1-7.2,7.1c-0.3-0.1-0.6-0.2-1-0.2c-1.4,0-2.6,1-2.7,2.3c-0.3,0-0.5,0-0.8,0
		c-3.4,0-6.5,2-8,5c-0.5-0.5-1.2-0.8-1.9-0.8c-1.2,0-2.3,0.8-2.7,1.9c-0.4-0.2-0.9-0.4-1.4-0.4c-0.5-0.9-1.4-1.5-2.4-1.4
		c-2.1,0-3,1.9-2.7,3.5c-0.5-0.3-1-0.4-1.6-0.4c-0.8,0-1.6,0.3-2.1,0.9c-0.8,0-1.5,0.2-2.2,0.6l-0.2,0.1c-0.3-0.1-0.6-0.2-0.9-0.2
		c-0.5,0-1,0.1-1.4,0.3c-0.2,0-0.4,0-0.6,0.1l-1.1,0.2c-1.1,0.3-2,1-2.6,2c-0.1,0.2-0.1,0.3-0.2,0.5c-0.5-0.6-1.3-0.9-2.1-0.9
		c-0.9,0-1.7,0.4-2.2,1.1L782.9,189.8z"/>
	
		<linearGradient id="SVGID_3_" gradientUnits="userSpaceOnUse" x1="279.1612" y1="1007.4833" x2="279.1612" y2="1041.8455" gradientTransform="matrix(1 0 0 -1 0 1080)">
		<stop  offset="0" style="stop-color:#9FC7D3"/>
		<stop  offset="0.32" style="stop-color:#C0D5DF"/>
		<stop  offset="0.77" style="stop-color:#E9E6EE"/>
		<stop  offset="1" style="stop-color:#F9EDF4"/>
	</linearGradient>
	<path class="st2" d="M328.9,65.6c-0.7-0.7-1.6-1.2-2.7-1.3c-1.6-1.6-4.3-1.6-5.9,0c0,0-0.1,0.1-0.1,0.1c-0.1-0.7-0.6-1.2-1.3-1.2
		c-0.3,0-0.5,0.1-0.7,0.3c-0.3-2-2-3.4-4-3.5c-0.5,0-1,0.1-1.4,0.3c0.3-0.6,0.5-1.3,0.5-2c0.1-2.2-1.7-4.1-3.9-4.1c0,0,0,0,0,0
		c-1.1,0-2.1,0.5-2.8,1.2c-0.3-0.3-0.6-0.5-1-0.6c0.1-0.5,0-0.9-0.2-1.3l-0.4-0.5c-0.3-0.4-0.7-0.7-1.2-0.9c-0.1,0-0.1,0-0.2,0
		c0.1-0.6-0.1-1.2-0.5-1.6c-0.1-0.1-0.2-0.2-0.4-0.4c-0.2-0.2-0.3-0.3-0.5-0.4c-0.2-0.3-0.5-0.5-0.7-0.7c0-0.2,0-0.3-0.1-0.4
		c-0.3-1-1.4-1.6-2.4-1.4l-0.8,0.3l0,0c-0.3,0-0.5-0.1-0.8-0.1c-0.1,0-0.2,0-0.2,0c-0.3-0.3-0.8-0.4-1.2-0.4c-0.9,0-1.6,0.5-1.8,1.4
		c-0.7,0.4-1.3,1-1.8,1.6c-0.1,0-0.2,0-0.3,0c-1.6,0-2.2,1.5-1.8,2.7c-0.6,0-1.1,0.3-1.4,0.8c-1.6-2.1-4.5-2.4-6.6-0.9
		c-0.3,0.3-0.6,0.6-0.9,0.9l-0.2-0.3c-0.3-0.4-0.7-0.7-1.2-0.9c-0.1,0-0.1,0-0.2,0c0.1-0.6-0.1-1.2-0.5-1.6L279,50
		c-0.2-0.2-0.3-0.3-0.5-0.4c-0.2-0.3-0.5-0.5-0.7-0.7c0-0.2,0-0.3-0.1-0.4c-0.3-1-1.4-1.7-2.4-1.4l-0.8,0.3h0
		c-0.3,0-0.5-0.1-0.8-0.1c-0.1,0-0.2,0-0.2,0c-0.3-0.3-0.8-0.4-1.2-0.4c-0.8,0-1.6,0.5-1.8,1.4c-0.7,0.4-1.3,1-1.8,1.6
		c-0.1,0-0.2,0-0.3,0c-1.6,0-2.2,1.5-1.8,2.7c-0.6,0-1.1,0.3-1.4,0.8c-0.9-1.1-2.3-1.8-3.7-1.8c-2.6,0-4.7,2.1-4.9,4.8
		c-0.2-0.1-0.4-0.1-0.7-0.1c-0.9,0-1.7,0.7-1.9,1.6c-0.2,0-0.3,0-0.5,0c-2.3,0-4.4,1.3-5.4,3.4c-0.4-0.3-0.8-0.5-1.3-0.5
		c-0.8,0-1.5,0.5-1.8,1.3c-0.3-0.2-0.6-0.3-0.9-0.3c-0.3-0.6-1-1-1.6-1c-1.4,0-2,1.3-1.8,2.4c-0.3-0.2-0.7-0.3-1-0.3
		c-0.5,0-1.1,0.2-1.4,0.6c-0.5,0-1,0.1-1.5,0.4l-0.1,0.1c-0.2-0.1-0.4-0.1-0.6-0.1c-0.3,0-0.7,0.1-0.9,0.2c-0.1,0-0.3,0-0.4,0.1
		l-0.7,0.2c-0.7,0.2-1.4,0.7-1.8,1.3c-0.1,0.1-0.1,0.2-0.1,0.3c-0.4-0.3-0.9-0.5-1.4-0.4c-0.7-0.1-1.3,0.3-1.5,0.9h100.3
		C329.2,65.5,329.1,65.7,328.9,65.6z"/>
	
		<linearGradient id="SVGID_4_" gradientUnits="userSpaceOnUse" x1="100.6417" y1="933.7507" x2="100.6417" y2="953.7472" gradientTransform="matrix(1 0 0 -1 0 1080)">
		<stop  offset="0" style="stop-color:#9FC7D3"/>
		<stop  offset="0.32" style="stop-color:#C0D5DF"/>
		<stop  offset="0.77" style="stop-color:#E9E6EE"/>
		<stop  offset="1" style="stop-color:#F9EDF4"/>
	</linearGradient>
	<path class="st3" d="M152.8,139.4c-0.8-0.7-1.8-1.2-2.8-1.3c-0.8-0.8-1.9-1.2-3.1-1.2c-1.3,0-2.5,0.6-3.4,1.5
		c-0.1-0.7-0.7-1.3-1.4-1.3c-0.3,0-0.6,0.1-0.8,0.3c-0.4-2.1-2.2-3.6-4.3-3.7c-0.5,0-1,0.1-1.5,0.3c0.3-0.6,0.5-1.4,0.5-2.1
		c0-2.4-1.9-4.4-4.2-4.4c-1.1,0-2.2,0.5-3,1.3c-0.3-0.3-0.6-0.5-1-0.7c0.1-0.5,0-1-0.3-1.4l-0.4-0.5c-0.3-0.5-0.7-0.8-1.2-1
		c-0.1,0-0.1,0-0.2,0c0.1-0.6-0.1-1.3-0.6-1.8c-0.1-0.1-0.3-0.3-0.4-0.4c-0.2-0.2-0.4-0.3-0.6-0.4c-0.2-0.3-0.5-0.5-0.8-0.8
		c0-0.2,0-0.3-0.1-0.5c-0.3-1-1.5-1.8-2.6-1.5l-0.9,0.3l0,0c-0.3,0-0.6-0.1-0.9-0.1c-0.1,0-0.2,0-0.3,0c-0.4-0.3-0.8-0.5-1.3-0.4
		c-0.9,0-1.7,0.6-1.9,1.4c-0.7,0.5-1.4,1-1.9,1.7c-0.1,0-0.2,0-0.3,0c-1.7,0-2.3,1.6-1.9,2.9c-0.6,0-1.2,0.3-1.5,0.8
		c-1-1.2-2.4-1.9-4-2c-2.8,0-5,2.3-5.2,5.1c-0.2-0.1-0.5-0.1-0.7-0.1c-0.3,0-0.7,0.1-1,0.2c-0.2-0.2-0.5-0.2-0.8-0.3
		c-0.1-0.1-0.2-0.2-0.3-0.3l-0.4-0.2c-0.3-0.2-0.8-0.2-1.1-0.1l-0.1,0c-0.1,0-0.2-0.1-0.3-0.1c-0.3-0.1-0.6-0.1-0.9,0
		c-0.1-0.1-0.1-0.2-0.2-0.2l-0.2-0.2c-0.1-0.1-0.2-0.2-0.3-0.2c-0.1-0.3-0.3-0.5-0.6-0.6c-0.3-0.2-0.8-0.3-1.1-0.1l-0.2,0.1
		c0-0.1-0.1-0.2-0.1-0.3c-0.1-0.2-0.3-0.4-0.5-0.5c-0.2-0.2-0.5-0.3-0.8-0.3c-0.2,0-0.4,0-0.5,0c-1.7-1.2-4-1.2-5.6,0.1
		c0,0-0.1,0-0.1,0c-0.2,0-0.4,0-0.6,0.1c-0.5-0.2-1-0.1-1.4,0.2c0,0-0.1,0.1-0.2,0.1c-0.3,0.1-0.5,0.3-0.7,0.6c0,0,0,0,0,0
		c-0.5,0.2-0.9,0.6-1,1.1c0,0-0.1,0.1-0.1,0.1c-0.1,0-0.1,0-0.2,0c-0.2-0.2-0.4-0.3-0.7-0.4l-0.9-0.3c-0.4-0.1-0.8,0-1.1,0.2
		c0,0-0.1,0.1-0.1,0.1c-0.2,0-0.5,0.1-0.7,0.2c-0.4,0.3-0.9,0.6-1.3,0.8c-0.3,0.2-0.6,0.5-0.7,0.8c-0.4,0.1-0.7,0.3-0.9,0.7
		c-0.2,0.5-0.4,1-0.4,1.5c-0.2,0-0.4,0.1-0.5,0.1c-0.2,0-0.4,0-0.7,0l-1,0.2c-0.4,0.1-0.7,0.3-0.9,0.7c-0.1,0.1-0.1,0.2-0.1,0.4
		c-0.1,0.1-0.2,0.2-0.3,0.3l-0.1,0.1c-0.4-0.1-0.7-0.1-1.1,0.1c-0.3,0-0.5,0.1-0.8,0.2c-0.2,0.1-0.3,0.3-0.5,0.5c-0.1,0-0.1,0-0.2,0
		c-0.3,0-0.6,0.1-0.9,0.3c-0.6,0.1-1.1,0.6-1.2,1.2c-0.1,0-0.1,0-0.2-0.1l-0.4-0.1c-0.3,0-0.5,0.1-0.8,0.2l-0.8,0.4
		c-0.3,0.2-0.5,0.4-0.6,0.8h0c-0.4-0.3-0.8-0.4-1.3-0.3c-0.4-0.1-0.7,0-1.1,0.2c-0.1,0-0.1-0.1-0.2-0.1c-0.3-0.2-0.8-0.3-1.1-0.1
		c-0.1,0.1-0.3,0.1-0.4,0.1c-0.1,0-0.2,0-0.4,0c-0.3,0-0.5,0.1-0.7,0.2c-0.3,0-0.6,0-0.9,0.2c-0.9,0.4-1.7,0.6-2.5,1.2
		c0,0,0-0.3,0-0.3h-0.2c-0.4,0-0.8,0.4-1.1,0.7c0,0,0,0.1,0,0.1c-0.5-0.1-1.1-0.1-1.6,0.2c-0.3-0.1-0.6-0.1-0.8,0
		c-0.2,0-0.3,0.1-0.5,0.1c-0.1,0-0.1,0.1-0.1,0.1c-0.1,0-0.1,0-0.2-0.1c-0.3-0.1-0.7-0.1-1,0c-0.3,0-0.5,0.3-0.7,0.3h105.1
		C153.1,139.8,152.9,139.6,152.8,139.4z"/>
	
		<linearGradient id="SVGID_5_" gradientUnits="userSpaceOnUse" x1="611.4817" y1="1029.0709" x2="611.4817" y2="999.8409" gradientTransform="matrix(1 0 0 -1 0 1080)">
		<stop  offset="0" style="stop-color:#F9EDF4"/>
		<stop  offset="0.23" style="stop-color:#E9E6EE"/>
		<stop  offset="0.68" style="stop-color:#C0D5DF"/>
		<stop  offset="1" style="stop-color:#9FC7D3"/>
	</linearGradient>
	<path class="st4" d="M676.1,77.7c-0.2,0-0.3-0.3-0.5-0.4c-0.9-0.8-2.1-1.4-3.3-1.5c-1-0.9-2.2-1.4-3.6-1.4c-1.5,0-2.9,0.6-3.9,1.7
		c-0.1-0.9-0.8-1.5-1.6-1.5c-0.3,0-0.6,0.1-0.9,0.3c-0.4-2.4-2.5-4.2-4.9-4.3c-0.6,0-1.2,0.1-1.8,0.4c0.4-0.7,0.6-1.6,0.6-2.4
		c0-2.8-2.2-5.1-4.8-5.1c-1.3,0-2.5,0.6-3.4,1.5c-0.3-0.3-0.7-0.6-1.2-0.8c0.1-0.6,0-1.2-0.3-1.6c-0.1-0.2-0.3-0.4-0.4-0.6
		c-0.3-0.5-0.8-0.9-1.4-1.1c-0.1,0-0.1,0-0.2,0c0.1-0.8-0.1-1.5-0.7-2.1l-0.4-0.5c-0.2-0.2-0.4-0.4-0.7-0.5
		c-0.3-0.3-0.6-0.6-0.9-0.9c0-0.2,0-0.4-0.1-0.6c-0.4-1.2-1.7-2.1-3-1.7l-1,0.3h0c-0.3,0-0.7-0.1-1-0.1c-0.1,0-0.2,0-0.3,0
		c-0.4-0.3-1-0.5-1.5-0.5c-1,0-2,0.6-2.2,1.6c-0.8,0.5-1.6,1.2-2.2,2c-0.1,0-0.2,0-0.4,0c-1.9,0-2.7,1.9-2.2,3.3
		c-0.7,0-1.4,0.4-1.8,0.9c-1.1-1.4-2.8-2.2-4.6-2.3c-2.6,0.1-4.9,1.8-5.7,4.3c-0.8-0.6-1.7-0.9-2.7-0.9c-1.3,0-2.5,0.6-3.4,1.5
		c-0.3-0.3-0.7-0.6-1.2-0.8c0.1-0.6,0-1.2-0.3-1.6l-0.4-0.6c-0.3-0.5-0.8-0.9-1.4-1.1c-0.1,0-0.1,0-0.2,0c0.1-0.8-0.1-1.5-0.7-2.1
		l-0.4-0.5c-0.2-0.2-0.4-0.4-0.7-0.5c-0.3-0.3-0.6-0.6-0.9-0.9c0-0.2,0-0.4-0.1-0.6c-0.4-1.2-1.7-2.1-3-1.7l-1,0.3h0
		c-0.3,0-0.7-0.1-1-0.1c-0.1,0-0.2,0-0.3,0c-0.4-0.3-1-0.5-1.5-0.5c-1,0-2,0.6-2.2,1.6c-0.8,0.5-1.6,1.2-2.2,2c-0.1,0-0.2,0-0.4,0
		c-1.9,0-2.7,1.9-2.2,3.3c-0.7,0-1.4,0.4-1.8,0.9c-1.1-1.4-2.8-2.2-4.6-2.3c-3.2,0-5.8,2.6-6,5.9c-0.3-0.1-0.5-0.1-0.8-0.1
		c-1.2,0-2.1,0.8-2.3,2c-0.2,0-0.4,0-0.6,0c-2.9,0-5.5,1.7-6.7,4.3c-0.4-0.4-1-0.7-1.6-0.7c-1,0-1.9,0.6-2.3,1.6
		c-0.3-0.2-0.7-0.3-1.1-0.3c-0.4-0.8-1.2-1.2-2.1-1.2c-1.8,0-2.5,1.6-2.3,2.9c-0.4-0.2-0.8-0.4-1.3-0.4c-0.7,0-1.3,0.3-1.8,0.8
		c-0.6,0-1.3,0.1-1.8,0.5l-0.1,0.1c-0.3-0.1-0.5-0.1-0.8-0.1c-0.4,0-0.8,0.1-1.2,0.3c-0.2,0-0.3,0-0.5,0.1l-0.9,0.2
		c-0.9,0.3-1.7,0.9-2.2,1.7c-0.1,0.1-0.1,0.3-0.1,0.3h38.1c0,0,0.1,0.1,0.1,0.1c0,0,0-0.1,0-0.1H676.1L676.1,77.7z"/>
	
		<linearGradient id="SVGID_6_" gradientUnits="userSpaceOnUse" x1="388.101" y1="1016.6757" x2="388.101" y2="987.4539" gradientTransform="matrix(1 0 0 -1 0 1080)">
		<stop  offset="0" style="stop-color:#F9EDF4"/>
		<stop  offset="0.23" style="stop-color:#E9E6EE"/>
		<stop  offset="0.68" style="stop-color:#C0D5DF"/>
		<stop  offset="1" style="stop-color:#9FC7D3"/>
	</linearGradient>
	<path class="st5" d="M388.1,82.8c0,0,0-0.1,0-0.1H388C388.1,82.8,388.1,82.8,388.1,82.8z"/>
	
		<linearGradient id="SVGID_7_" gradientUnits="userSpaceOnUse" x1="386.2997" y1="1016.684" x2="386.2997" y2="987.4498" gradientTransform="matrix(1 0 0 -1 0 1080)">
		<stop  offset="0" style="stop-color:#F9EDF4"/>
		<stop  offset="0.23" style="stop-color:#E9E6EE"/>
		<stop  offset="0.68" style="stop-color:#C0D5DF"/>
		<stop  offset="1" style="stop-color:#9FC7D3"/>
	</linearGradient>
	<path class="st6" d="M384.6,82.7h3.5c-0.3-0.6-1-0.9-1.6-0.8C385.5,81.9,384.9,82.7,384.6,82.7z"/>
</g>
<title>background2</title>
<g id="Capa_3_1_">
	
		<linearGradient id="SVGID_8_" gradientUnits="userSpaceOnUse" x1="243.9203" y1="635.8893" x2="243.9203" y2="674.6127" gradientTransform="matrix(1 0 0 -1 0 1080)">
		<stop  offset="0" style="stop-color:#9FC7D3"/>
		<stop  offset="0.32" style="stop-color:#C0D5DF"/>
		<stop  offset="0.77" style="stop-color:#E9E6EE"/>
		<stop  offset="1" style="stop-color:#F9EDF4"/>
	</linearGradient>
	<path class="st7" d="M281,428.3c0.2-0.8-0.3-1.6-1.1-1.9c-0.3-0.1-0.6-0.1-0.9-0.2c-0.2,0-0.3,0-0.5,0c-0.2-0.1-0.5-0.2-0.7-0.2
		c-0.1-0.1-0.2-0.1-0.3-0.2c-0.7-0.4-1.6-0.6-2.4-0.4h-0.1c-0.1-0.2-0.3-0.3-0.4-0.4l-0.3-0.1c-0.3-0.2-0.6-0.2-0.9-0.2
		c-0.3-0.4-0.8-0.7-1.3-0.7h-0.4c-0.1,0-0.1,0-0.1,0c0,0-0.1,0-0.1,0c-0.1-0.1-0.2-0.2-0.4-0.3l-0.3-0.1c-0.1-0.1-0.2-0.1-0.3-0.1
		l-0.2-0.1c0.2-0.6,0.1-1.2-0.3-1.6l-0.1-0.1c-0.6-0.6-1.5-0.8-2.1-0.3v-0.2h-0.4c-0.3,0-0.5,0-0.8,0.2c-0.2-0.1-0.4-0.2-0.5-0.2
		h-0.3c-0.1,0-0.1,0.1-0.2,0.1c-0.3-0.1-0.6-0.2-0.9-0.1h-0.3c-0.1,0-0.2-0.1-0.3-0.1c0-0.2-0.1-0.4-0.2-0.6c0-0.1-0.1-0.2-0.1-0.3
		c-0.4-0.7-1.4-1-2.1-0.6c0,0-0.1,0.1-0.1,0.1h-0.1c-0.1,0-0.3,0.1-0.4,0.2c0-0.1,0-0.2,0-0.3c-0.1-0.6-0.4-1.1-0.8-1.5
		c-0.3-0.3-0.6-0.4-1-0.4c-0.1-0.1-0.2-0.2-0.4-0.3l-0.4-0.2c-0.4-0.2-0.8-0.3-1.2-0.2l-0.1,0c-0.1-0.1-0.2-0.1-0.3-0.1
		c-0.3-0.1-0.7-0.1-1,0c-0.1-0.1-0.1-0.2-0.2-0.2l-0.2-0.2c-0.1-0.1-0.2-0.2-0.4-0.3c-0.1-0.3-0.3-0.5-0.6-0.6
		c-0.4-0.2-0.8-0.3-1.2-0.2c-0.1,0-0.1,0-0.2,0.1l-0.1-0.3c-0.1-0.2-0.3-0.4-0.6-0.6c-0.2-0.2-0.5-0.3-0.8-0.3c-0.2,0-0.4,0-0.6,0
		c-1.8-1.3-4.2-1.2-5.9,0.1c0,0-0.1,0-0.1,0c-0.2,0-0.4,0.1-0.6,0.1c-0.5-0.2-1.1-0.1-1.5,0.2c-0.1,0-0.1,0.1-0.2,0.1
		c-0.3,0.1-0.6,0.4-0.7,0.6c0,0,0,0,0,0c-0.5,0.2-0.9,0.6-1.1,1.1c0,0-0.1,0.1-0.1,0.1l-0.2,0c-0.2-0.2-0.4-0.3-0.7-0.4l-0.9-0.3
		c-0.4-0.1-0.8-0.1-1.2,0.2c0,0-0.1,0.1-0.1,0.1c-0.2,0-0.5,0.1-0.7,0.2c-0.4,0.3-0.9,0.6-1.4,0.8c-0.3,0.2-0.6,0.5-0.7,0.9
		c-0.4,0.1-0.8,0.3-1,0.7c-0.2,0.5-0.4,1-0.4,1.6c-0.2,0-0.4,0.1-0.5,0.2c-0.2,0-0.5,0-0.7,0l-1.1,0.2c-0.5,0.1-0.9,0.6-1.1,1.1
		c-0.1,0.1-0.2,0.2-0.3,0.4l-0.1,0.1c-0.4-0.1-0.8-0.1-1.1,0.1c-0.3,0-0.6,0.1-0.8,0.2c-0.2,0.1-0.4,0.3-0.5,0.5c-0.1,0-0.1,0-0.2,0
		c-0.6,0.1-1.2,0.4-1.8,0.7c-0.2,0.2-0.3,0.5-0.4,0.8c-0.1,0-0.1,0-0.2-0.1l-0.4-0.1c-0.3,0-0.5,0.1-0.8,0.2l-0.8,0.4
		c-0.3,0.2-0.6,0.5-0.7,0.8h0c-0.4-0.3-0.9-0.4-1.4-0.3c-0.4-0.1-0.8,0-1.1,0.2c-0.1,0-0.1-0.1-0.2-0.1c-0.4-0.2-0.8-0.3-1.2-0.2
		c-0.1,0.1-0.3,0.1-0.4,0.1c-0.1,0-0.3,0-0.4,0c-0.3,0-0.5,0.1-0.8,0.2c-0.3,0-0.7,0-1,0.2c-0.9,0.4-1.8,0.7-2.6,1.3
		c0,0,0-0.3,0-0.3h-0.3c-0.4,0-0.8,0.4-1.1,0.7c0,0,0,0.1,0,0.1c-0.6-0.1-1.1-0.1-1.6,0.2c-0.3-0.1-0.6-0.1-0.9,0
		c-0.2,0-0.3,0.1-0.5,0.1c-0.1,0-0.1,0.1-0.2,0.1c-0.1,0-0.1,0-0.2-0.1c-0.3-0.1-0.7-0.1-1.1,0c-0.3,0.1-0.5,0.3-0.7,0.3L281,428.3z
		 M260.9,423.2c0.1,0,0.1,0,0.2,0c0,0.1,0.1,0.2,0.1,0.3c-0.2,0-0.3,0.1-0.4,0.1C260.8,423.5,260.9,423.3,260.9,423.2L260.9,423.2z"
		/>
	
		<linearGradient id="SVGID_9_" gradientUnits="userSpaceOnUse" x1="522.606" y1="643.0371" x2="522.606" y2="692.8408" gradientTransform="matrix(1 0 0 -1 0 1080)">
		<stop  offset="0" style="stop-color:#9FC7D3"/>
		<stop  offset="0.32" style="stop-color:#C0D5DF"/>
		<stop  offset="0.77" style="stop-color:#E9E6EE"/>
		<stop  offset="1" style="stop-color:#F9EDF4"/>
	</linearGradient>
	<path class="st8" d="M579.1,416.8c-0.2-0.2-0.4-0.5-0.6-0.7c-1.1-1-2.4-1.7-3.9-1.9c-1.1-1.1-2.7-1.7-4.3-1.7
		c-1.8,0-3.4,0.8-4.6,2.1c-0.1-1-0.9-1.8-2-1.8c-0.4,0-0.8,0.1-1.1,0.4c-0.5-2.9-3-5-5.9-5.1c-0.7,0-1.4,0.1-2.1,0.4
		c0.5-0.9,0.7-1.9,0.7-2.9c0-3.3-2.6-6.1-5.7-6.1c-1.6,0-3,0.7-4.1,1.8c-0.4-0.4-0.9-0.7-1.4-0.9c0.1-0.7,0-1.4-0.3-1.9l-0.5-0.7
		c-0.4-0.6-1-1.1-1.7-1.3c-0.1,0-0.2,0-0.3,0c0.1-0.9-0.2-1.8-0.8-2.4l-0.5-0.5c-0.2-0.2-0.5-0.4-0.8-0.6c-0.3-0.4-0.7-0.7-1.1-1.1
		c0-0.2,0-0.4-0.1-0.7c-0.5-1.4-2-2.5-3.5-2l-1.2,0.4h0c-0.4-0.1-0.8-0.1-1.2-0.1c-0.1,0-0.2,0-0.3,0c-0.5-0.4-1.1-0.6-1.8-0.6
		c-1.2,0-2.3,0.8-2.7,2c-1,0.6-1.9,1.4-2.6,2.3c-0.1,0-0.3,0-0.4,0c-2.3,0-3.2,2.3-2.6,3.9c-0.8,0-1.6,0.4-2.1,1.1
		c-1.3-1.7-3.3-2.7-5.5-2.7c-3.8,0-6.9,3.1-7.2,7.1c-0.3-0.1-0.6-0.2-1-0.2c-1.4,0-2.6,1-2.7,2.3c-0.3,0-0.5,0-0.8,0
		c-3.4,0-6.5,2-8,5c-0.5-0.5-1.2-0.8-1.9-0.8c-1.2,0-2.3,0.8-2.7,1.9c-0.4-0.2-0.9-0.4-1.4-0.4c-0.5-0.9-1.4-1.5-2.4-1.4
		c-2.1,0-3,1.9-2.7,3.5c-0.5-0.3-1-0.4-1.6-0.4c-0.8,0-1.6,0.3-2.1,0.9c-0.8,0-1.5,0.2-2.2,0.6l-0.2,0.1c-0.3-0.1-0.6-0.2-0.9-0.2
		c-0.5,0-1,0.1-1.4,0.3c-0.2,0-0.4,0-0.6,0.1l-1.1,0.2c-1.1,0.3-2,1-2.6,2c-0.1,0.2-0.1,0.3-0.2,0.5c-0.5-0.6-1.3-0.9-2.1-0.9
		c-0.9,0-1.7,0.4-2.2,1.1L579.1,416.8z"/>
	
		<linearGradient id="SVGID_10_" gradientUnits="userSpaceOnUse" x1="75.3726" y1="780.5681" x2="75.3726" y2="814.9302" gradientTransform="matrix(1 0 0 -1 0 1080)">
		<stop  offset="0" style="stop-color:#9FC7D3"/>
		<stop  offset="0.32" style="stop-color:#C0D5DF"/>
		<stop  offset="0.77" style="stop-color:#E9E6EE"/>
		<stop  offset="1" style="stop-color:#F9EDF4"/>
	</linearGradient>
	<path class="st9" d="M125.1,292.5c-0.7-0.7-1.6-1.2-2.7-1.3c-1.6-1.6-4.3-1.6-5.9,0c0,0-0.1,0.1-0.1,0.1c-0.1-0.7-0.6-1.2-1.3-1.2
		c-0.3,0-0.5,0.1-0.7,0.3c-0.3-2-2-3.4-4-3.5c-0.5,0-1,0.1-1.4,0.3c0.3-0.6,0.5-1.3,0.5-2c0.1-2.2-1.7-4.1-3.9-4.1c0,0,0,0,0,0
		c-1.1,0-2.1,0.5-2.8,1.2c-0.3-0.3-0.6-0.5-1-0.6c0.1-0.5,0-0.9-0.2-1.3l-0.4-0.5c-0.3-0.4-0.7-0.7-1.2-0.9c-0.1,0-0.1,0-0.2,0
		c0.1-0.6-0.1-1.2-0.5-1.6c-0.1-0.1-0.2-0.2-0.4-0.4c-0.2-0.2-0.3-0.3-0.5-0.4c-0.2-0.3-0.5-0.5-0.7-0.7c0-0.2,0-0.3-0.1-0.4
		c-0.3-1-1.4-1.6-2.4-1.4l-0.8,0.3l0,0c-0.3,0-0.5-0.1-0.8-0.1c-0.1,0-0.2,0-0.2,0c-0.3-0.3-0.8-0.4-1.2-0.4c-0.9,0-1.6,0.5-1.8,1.4
		c-0.7,0.4-1.3,1-1.8,1.6c-0.1,0-0.2,0-0.3,0c-1.6,0-2.2,1.5-1.8,2.7c-0.6,0-1.1,0.3-1.4,0.8c-1.6-2.1-4.5-2.4-6.6-0.9
		c-0.3,0.3-0.6,0.6-0.9,0.9l-0.2-0.3c-0.3-0.4-0.7-0.7-1.2-0.9c-0.1,0-0.1,0-0.2,0c0.1-0.6-0.1-1.2-0.5-1.6l-0.4-0.4
		c-0.2-0.2-0.3-0.3-0.5-0.4c-0.2-0.3-0.5-0.5-0.7-0.7c0-0.2,0-0.3-0.1-0.4c-0.3-1-1.4-1.7-2.4-1.4l-0.8,0.3h0
		c-0.3,0-0.5-0.1-0.8-0.1c-0.1,0-0.2,0-0.2,0c-0.3-0.3-0.8-0.4-1.2-0.4c-0.8,0-1.6,0.5-1.8,1.4c-0.7,0.4-1.3,1-1.8,1.6
		c-0.1,0-0.2,0-0.3,0c-1.6,0-2.2,1.5-1.8,2.7c-0.6,0-1.1,0.3-1.4,0.8c-0.9-1.1-2.3-1.8-3.7-1.8c-2.6,0-4.7,2.1-4.9,4.8
		c-0.2-0.1-0.4-0.1-0.7-0.1c-0.9,0-1.7,0.7-1.9,1.6c-0.2,0-0.3,0-0.5,0c-2.3,0-4.4,1.3-5.4,3.4c-0.4-0.3-0.8-0.5-1.3-0.5
		c-0.8,0-1.5,0.5-1.8,1.3c-0.3-0.2-0.6-0.3-0.9-0.3c-0.3-0.6-1-1-1.6-1c-1.4,0-2,1.3-1.8,2.4c-0.3-0.2-0.7-0.3-1-0.3
		c-0.5,0-1.1,0.2-1.4,0.6c-0.5,0-1,0.1-1.5,0.4l-0.1,0.1c-0.2-0.1-0.4-0.1-0.6-0.1c-0.3,0-0.7,0.1-0.9,0.2c-0.1,0-0.3,0-0.4,0.1
		l-0.7,0.2c-0.7,0.2-1.4,0.7-1.8,1.3c-0.1,0.1-0.1,0.2-0.1,0.3c-0.4-0.3-0.9-0.5-1.4-0.4c-0.7-0.1-1.3,0.3-1.5,0.9h100.3
		C125.4,292.4,125.3,292.6,125.1,292.5z"/>
	
		<linearGradient id="SVGID_11_" gradientUnits="userSpaceOnUse" x1="407.6931" y1="802.1557" x2="407.6931" y2="772.9257" gradientTransform="matrix(1 0 0 -1 0 1080)">
		<stop  offset="0" style="stop-color:#F9EDF4"/>
		<stop  offset="0.23" style="stop-color:#E9E6EE"/>
		<stop  offset="0.68" style="stop-color:#C0D5DF"/>
		<stop  offset="1" style="stop-color:#9FC7D3"/>
	</linearGradient>
	<path class="st10" d="M472.4,304.6c-0.2,0-0.3-0.3-0.5-0.4c-0.9-0.8-2.1-1.4-3.3-1.5c-1-0.9-2.2-1.4-3.6-1.4
		c-1.5,0-2.9,0.6-3.9,1.7c-0.1-0.9-0.8-1.5-1.6-1.5c-0.3,0-0.6,0.1-0.9,0.3c-0.4-2.4-2.5-4.2-4.9-4.3c-0.6,0-1.2,0.1-1.8,0.4
		c0.4-0.7,0.6-1.6,0.6-2.4c0-2.8-2.2-5.1-4.8-5.1c-1.3,0-2.5,0.6-3.4,1.5c-0.3-0.3-0.7-0.6-1.2-0.8c0.1-0.6,0-1.2-0.3-1.6
		c-0.1-0.2-0.3-0.4-0.4-0.6c-0.3-0.5-0.8-0.9-1.4-1.1c-0.1,0-0.1,0-0.2,0c0.1-0.8-0.1-1.5-0.7-2.1l-0.4-0.5
		c-0.2-0.2-0.4-0.4-0.7-0.5c-0.3-0.3-0.6-0.6-0.9-0.9c0-0.2,0-0.4-0.1-0.6c-0.4-1.2-1.7-2.1-3-1.7l-1,0.3h0c-0.3,0-0.7-0.1-1-0.1
		c-0.1,0-0.2,0-0.3,0c-0.4-0.3-1-0.5-1.5-0.5c-1,0-2,0.6-2.2,1.6c-0.8,0.5-1.6,1.2-2.2,2c-0.1,0-0.2,0-0.4,0c-1.9,0-2.7,1.9-2.2,3.3
		c-0.7,0-1.4,0.4-1.8,0.9c-1.1-1.4-2.8-2.2-4.6-2.3c-2.6,0.1-4.9,1.8-5.7,4.3c-0.8-0.6-1.7-0.9-2.7-0.9c-1.3,0-2.5,0.6-3.4,1.5
		c-0.3-0.3-0.7-0.6-1.2-0.8c0.1-0.6,0-1.2-0.3-1.6l-0.4-0.6c-0.3-0.5-0.8-0.9-1.4-1.1c-0.1,0-0.1,0-0.2,0c0.1-0.8-0.1-1.5-0.7-2.1
		l-0.4-0.5c-0.2-0.2-0.4-0.4-0.7-0.5c-0.3-0.3-0.6-0.6-0.9-0.9c0-0.2,0-0.4-0.1-0.6c-0.4-1.2-1.7-2.1-3-1.7l-1,0.3h0
		c-0.3,0-0.7-0.1-1-0.1c-0.1,0-0.2,0-0.3,0c-0.4-0.3-1-0.5-1.5-0.5c-1,0-2,0.6-2.2,1.6c-0.8,0.5-1.6,1.2-2.2,2c-0.1,0-0.2,0-0.4,0
		c-1.9,0-2.7,1.9-2.2,3.3c-0.7,0-1.4,0.4-1.8,0.9c-1.1-1.4-2.8-2.2-4.6-2.3c-3.2,0-5.8,2.6-6,5.9c-0.3-0.1-0.5-0.1-0.8-0.1
		c-1.2,0-2.1,0.8-2.3,2c-0.2,0-0.4,0-0.6,0c-2.9,0-5.5,1.7-6.7,4.3c-0.4-0.4-1-0.7-1.6-0.7c-1,0-1.9,0.6-2.3,1.6
		c-0.3-0.2-0.7-0.3-1.1-0.3c-0.4-0.8-1.2-1.2-2.1-1.2c-1.8,0-2.5,1.6-2.3,2.9c-0.4-0.2-0.8-0.4-1.3-0.4c-0.7,0-1.3,0.3-1.8,0.8
		c-0.6,0-1.3,0.1-1.8,0.5l-0.1,0.1c-0.3-0.1-0.5-0.1-0.8-0.1c-0.4,0-0.8,0.1-1.2,0.3c-0.2,0-0.3,0-0.5,0.1l-0.9,0.2
		c-0.9,0.3-1.7,0.9-2.2,1.7c-0.1,0.1-0.1,0.3-0.1,0.3h38.1c0,0,0.1,0.1,0.1,0.1c0,0,0-0.1,0-0.1H472.4L472.4,304.6z"/>
	
		<linearGradient id="SVGID_12_" gradientUnits="userSpaceOnUse" x1="184.3124" y1="789.7604" x2="184.3124" y2="760.5386" gradientTransform="matrix(1 0 0 -1 0 1080)">
		<stop  offset="0" style="stop-color:#F9EDF4"/>
		<stop  offset="0.23" style="stop-color:#E9E6EE"/>
		<stop  offset="0.68" style="stop-color:#C0D5DF"/>
		<stop  offset="1" style="stop-color:#9FC7D3"/>
	</linearGradient>
	<path class="st11" d="M184.3,309.7c0,0,0-0.1,0-0.1h-0.1C184.3,309.7,184.3,309.7,184.3,309.7z"/>
	
		<linearGradient id="SVGID_13_" gradientUnits="userSpaceOnUse" x1="182.5111" y1="789.7687" x2="182.5111" y2="760.5345" gradientTransform="matrix(1 0 0 -1 0 1080)">
		<stop  offset="0" style="stop-color:#F9EDF4"/>
		<stop  offset="0.23" style="stop-color:#E9E6EE"/>
		<stop  offset="0.68" style="stop-color:#C0D5DF"/>
		<stop  offset="1" style="stop-color:#9FC7D3"/>
	</linearGradient>
	<path class="st12" d="M180.8,309.6h3.5c-0.3-0.6-1-0.9-1.6-0.8C181.8,308.8,181.2,309.6,180.8,309.6z"/>
</g>
<g id="Capa_3_3_">
	
		<linearGradient id="SVGID_14_" gradientUnits="userSpaceOnUse" x1="705.5311" y1="753.194" x2="705.5311" y2="773.1906" gradientTransform="matrix(1 0 0 -1 0 1080)">
		<stop  offset="0" style="stop-color:#9FC7D3"/>
		<stop  offset="0.32" style="stop-color:#C0D5DF"/>
		<stop  offset="0.77" style="stop-color:#E9E6EE"/>
		<stop  offset="1" style="stop-color:#F9EDF4"/>
	</linearGradient>
	<path class="st13" d="M757.7,320c-0.8-0.7-1.8-1.2-2.8-1.3c-0.8-0.8-1.9-1.2-3.1-1.2c-1.3,0-2.5,0.6-3.4,1.5
		c-0.1-0.7-0.7-1.3-1.4-1.3c-0.3,0-0.6,0.1-0.8,0.3c-0.4-2.1-2.2-3.6-4.3-3.7c-0.5,0-1,0.1-1.5,0.3c0.3-0.6,0.5-1.4,0.5-2.1
		c0-2.4-1.9-4.4-4.2-4.4c-1.1,0-2.2,0.5-3,1.3c-0.3-0.3-0.6-0.5-1-0.7c0.1-0.5,0-1-0.3-1.4l-0.4-0.5c-0.3-0.5-0.7-0.8-1.2-1
		c-0.1,0-0.1,0-0.2,0c0.1-0.6-0.1-1.3-0.6-1.8c-0.1-0.1-0.3-0.3-0.4-0.4c-0.2-0.2-0.4-0.3-0.6-0.4c-0.2-0.3-0.5-0.5-0.8-0.8
		c0-0.2,0-0.3-0.1-0.5c-0.3-1-1.5-1.8-2.6-1.5l-0.9,0.3l0,0c-0.3,0-0.6-0.1-0.9-0.1c-0.1,0-0.2,0-0.3,0c-0.4-0.3-0.8-0.5-1.3-0.4
		c-0.9,0-1.7,0.6-1.9,1.4c-0.7,0.5-1.4,1-1.9,1.7c-0.1,0-0.2,0-0.3,0c-1.7,0-2.3,1.6-1.9,2.9c-0.6,0-1.2,0.3-1.5,0.8
		c-1-1.2-2.4-1.9-4-2c-2.8,0-5,2.3-5.2,5.1c-0.2-0.1-0.5-0.1-0.7-0.1c-0.3,0-0.7,0.1-1,0.2c-0.2-0.2-0.5-0.2-0.8-0.3
		c-0.1-0.1-0.2-0.2-0.3-0.3l-0.4-0.2c-0.3-0.2-0.8-0.2-1.1-0.1l-0.1,0c-0.1,0-0.2-0.1-0.3-0.1c-0.3-0.1-0.6-0.1-0.9,0
		c-0.1-0.1-0.1-0.2-0.2-0.2l-0.2-0.2c-0.1-0.1-0.2-0.2-0.3-0.2c-0.1-0.3-0.3-0.5-0.6-0.6c-0.3-0.2-0.8-0.3-1.1-0.1l-0.2,0.1
		c0-0.1-0.1-0.2-0.1-0.3c-0.1-0.2-0.3-0.4-0.5-0.5c-0.2-0.2-0.5-0.3-0.8-0.3c-0.2,0-0.4,0-0.5,0c-1.7-1.2-4-1.2-5.6,0.1
		c0,0-0.1,0-0.1,0c-0.2,0-0.4,0-0.6,0.1c-0.5-0.2-1-0.1-1.4,0.2c0,0-0.1,0.1-0.2,0.1c-0.3,0.1-0.5,0.3-0.7,0.6c0,0,0,0,0,0
		c-0.5,0.2-0.9,0.6-1,1.1c0,0-0.1,0.1-0.1,0.1c-0.1,0-0.1,0-0.2,0c-0.2-0.2-0.4-0.3-0.7-0.4l-0.9-0.3c-0.4-0.1-0.8,0-1.1,0.2
		c0,0-0.1,0.1-0.1,0.1c-0.2,0-0.5,0.1-0.7,0.2c-0.4,0.3-0.9,0.6-1.3,0.8c-0.3,0.2-0.6,0.5-0.7,0.8c-0.4,0.1-0.7,0.3-0.9,0.7
		c-0.2,0.5-0.4,1-0.4,1.5c-0.2,0-0.4,0.1-0.5,0.1c-0.2,0-0.4,0-0.7,0l-1,0.2c-0.4,0.1-0.7,0.3-0.9,0.7c-0.1,0.1-0.1,0.2-0.1,0.4
		c-0.1,0.1-0.2,0.2-0.3,0.3l-0.1,0.1c-0.4-0.1-0.7-0.1-1.1,0.1c-0.3,0-0.5,0.1-0.8,0.2c-0.2,0.1-0.3,0.3-0.5,0.5c-0.1,0-0.1,0-0.2,0
		c-0.3,0-0.6,0.1-0.9,0.3c-0.6,0.1-1.1,0.6-1.2,1.2c-0.1,0-0.1,0-0.2-0.1l-0.4-0.1c-0.3,0-0.5,0.1-0.8,0.2l-0.8,0.4
		c-0.3,0.2-0.5,0.4-0.6,0.8h0c-0.4-0.3-0.8-0.4-1.3-0.3c-0.4-0.1-0.7,0-1.1,0.2c-0.1,0-0.1-0.1-0.2-0.1c-0.3-0.2-0.8-0.3-1.1-0.1
		c-0.1,0.1-0.3,0.1-0.4,0.1c-0.1,0-0.2,0-0.4,0c-0.3,0-0.5,0.1-0.7,0.2c-0.3,0-0.6,0-0.9,0.2c-0.9,0.4-1.7,0.6-2.5,1.2
		c0,0,0-0.3,0-0.3H659c-0.4,0-0.8,0.4-1.1,0.7c0,0,0,0.1,0,0.1c-0.5-0.1-1.1-0.1-1.6,0.2c-0.3-0.1-0.6-0.1-0.8,0
		c-0.2,0-0.3,0.1-0.5,0.1c-0.1,0-0.1,0.1-0.1,0.1c-0.1,0-0.1,0-0.2-0.1c-0.3-0.1-0.7-0.1-1,0c-0.3,0-0.5,0.3-0.7,0.3h105.1
		C758,320.3,757.8,320.1,757.7,320z"/>
</g>
<title>background2</title>
<g id="Capa_3_2_">
	
		<linearGradient id="SVGID_15_" gradientUnits="userSpaceOnUse" x1="74.0799" y1="1014.9" x2="74.0799" y2="1064.7037" gradientTransform="matrix(1 0 0 -1 0 1080)">
		<stop  offset="0" style="stop-color:#9FC7D3"/>
		<stop  offset="0.32" style="stop-color:#C0D5DF"/>
		<stop  offset="0.77" style="stop-color:#E9E6EE"/>
		<stop  offset="1" style="stop-color:#F9EDF4"/>
	</linearGradient>
	<path class="st14" d="M130.5,44.9c-0.2-0.2-0.4-0.5-0.6-0.7c-1.1-1-2.4-1.7-3.9-1.9c-1.1-1.1-2.7-1.7-4.3-1.7
		c-1.8,0-3.4,0.8-4.6,2.1c-0.1-1-0.9-1.8-2-1.8c-0.4,0-0.8,0.1-1.1,0.4c-0.5-2.9-3-5-5.9-5.1c-0.7,0-1.4,0.1-2.1,0.4
		c0.5-0.9,0.7-1.9,0.7-2.9c0-3.3-2.6-6.1-5.7-6.1c-1.6,0-3,0.7-4.1,1.8c-0.4-0.4-0.9-0.7-1.4-0.9c0.1-0.7,0-1.4-0.3-1.9l-0.5-0.7
		c-0.4-0.6-1-1.1-1.7-1.3c-0.1,0-0.2,0-0.3,0c0.1-0.9-0.2-1.8-0.8-2.4l-0.5-0.5c-0.2-0.2-0.5-0.4-0.8-0.6c-0.3-0.4-0.7-0.7-1.1-1.1
		c0-0.2,0-0.4-0.1-0.7c-0.5-1.4-2-2.5-3.5-2l-1.2,0.4h0c-0.4-0.1-0.8-0.1-1.2-0.1c-0.1,0-0.2,0-0.3,0c-0.5-0.4-1.1-0.6-1.8-0.6
		c-1.2,0-2.3,0.8-2.7,2c-1,0.6-1.9,1.4-2.6,2.3c-0.1,0-0.3,0-0.4,0c-2.3,0-3.2,2.3-2.6,3.9c-0.8,0-1.6,0.4-2.1,1.1
		c-1.3-1.7-3.3-2.7-5.5-2.7c-3.8,0-6.9,3.1-7.2,7.1c-0.3-0.1-0.6-0.2-1-0.2c-1.4,0-2.6,1-2.7,2.3c-0.3,0-0.5,0-0.8,0
		c-3.4,0-6.5,2-8,5c-0.5-0.5-1.2-0.8-1.9-0.8c-1.2,0-2.3,0.8-2.7,1.9c-0.4-0.2-0.9-0.4-1.4-0.4c-0.5-0.9-1.4-1.5-2.4-1.4
		c-2.1,0-3,1.9-2.7,3.5c-0.5-0.3-1-0.4-1.6-0.4c-0.8,0-1.6,0.3-2.1,0.9c-0.8,0-1.5,0.2-2.2,0.6l-0.2,0.1c-0.3-0.1-0.6-0.2-0.9-0.2
		c-0.5,0-1,0.1-1.4,0.3c-0.2,0-0.4,0-0.6,0.1l-1.1,0.2c-1.1,0.3-2,1-2.6,2c-0.1,0.2-0.1,0.3-0.2,0.5c-0.5-0.6-1.3-0.9-2.1-0.9
		c-0.9,0-1.7,0.4-2.2,1.1L130.5,44.9z"/>
</g>
</svg>
