<?xml version="1.0" encoding="utf-8"?>
<!-- Generator: Adobe Illustrator 22.0.0, SVG Export Plug-In . SVG Version: 6.00 Build 0)  -->
<svg version="1.1" id="Capa_1" xmlns="http://www.w3.org/2000/svg" xmlns:xlink="http://www.w3.org/1999/xlink" x="0px" y="0px"
	 viewBox="0 0 800 1080" style="enable-background:new 0 0 800 1080;" xml:space="preserve">
<style type="text/css">
	.st0{fill:url(#_Rectángulo__1_);}
	.st1{fill:url(#SVGID_1_);}
</style>
<title>background1</title>
<linearGradient id="_Rectángulo__1_" gradientUnits="userSpaceOnUse" x1="401.3" y1="-32.5809" x2="401.3" y2="1046.9191">
	<stop  offset="0" style="stop-color:#9FC7D3"/>
	<stop  offset="0.32" style="stop-color:#C0D5DF"/>
	<stop  offset="0.77" style="stop-color:#E9E6EE"/>
	<stop  offset="1" style="stop-color:#F9EDF4"/>
</linearGradient>
<rect id="_Rectángulo_" x="-41" y="0.5" class="st0" width="884.6" height="1079.5"/>
<linearGradient id="SVGID_1_" gradientUnits="userSpaceOnUse" x1="401.5002" y1="1020.7228" x2="401.5002" y2="369.6032">
	<stop  offset="0" style="stop-color:#9FC7D3"/>
	<stop  offset="0.32" style="stop-color:#C0D5DF"/>
	<stop  offset="0.77" style="stop-color:#E9E6EE"/>
	<stop  offset="1" style="stop-color:#F9EDF4"/>
</linearGradient>
<path class="st1" d="M791.3,292.6c-3.3,0-6.5,1-9.3,2.8c-2.8-3.6-8.1-6.1-14.2-6.1c-9,0-16.3,5.3-16.3,11.9c0,1.3,0.3,2.6,0.8,3.8
	c-1.3-0.3-2.7-0.4-4-0.4c-0.6,0-1.2,0-1.8,0.1c-1.6-0.7-3.4-1.1-5.2-1l-4,0.5c-0.8,0.2-1.6,0.5-2.3,0.8c-0.2-0.2-0.5-0.3-0.7-0.5
	c0-0.2,0-0.4,0-0.6c-0.2-3.7-1.7-7.2-4.2-9.9l-2.9-2.2c-2-1.1-4.2-1.8-6.4-1.9c-2.4-3.6-6.4-5.7-10.6-5.7c-5.9,0-11.7,4.5-12.7,10.2
	c-1.5,0.6-2.9,1.5-4,2.7l-2.3,3c-1.3,2.2-2.1,4.8-2.1,7.4c0.2,1.3,0.4,2.6,0.5,3.9c0.2,0.7,0.5,1.4,0.8,2.1c-4.3,2-7.7,6-8.5,10.6
	c-0.3,0-0.5,0-0.8,0c-7.2,0-13,5.1-13,11.4c0,1.5,0.4,3,1,4.4c-1.3-0.2-2.6-0.3-4-0.3c-8,0-14.7,4-16.8,9.5
	c-3.9,1.6-6.6,5.1-6.6,9.2c0,0.2,0,0.3,0,0.5c-3.9,1.3-6.9,3.6-8.2,6.4c-2.9-2.6-7.3-4.3-12.2-4.3c-7.1,0-13.1,3.5-15,8.3
	c-1.1-0.3-2.3-0.4-3.4-0.4l-4,0.5c-2.5,0.7-4.8,2-6.6,3.8l-0.5,0.6c-0.4,0-0.8-0.1-1.2-0.1c-2,0-4.1,0.5-5.8,1.6
	c-0.3-0.3-0.5-0.5-0.8-0.8l-0.4-2.6c-0.7-2.4-2-4.6-3.9-6.4c-1-0.8-2-1.2-3-2c-2.3-1.3-4.9-1.6-7.6-1.6h-0.6c-2.1-0.8-4-0.1-5.8,0.9
	c-1.2,0.4-2.3,0.6-3.3,1.3c-1.4-0.4-2.9-0.6-4.4-0.6h-0.1c-0.8-2-1.9-3.7-3.4-5.2c-1-0.8-2-1.2-3-1.9c-2.3-1.3-4.9-1.5-7.6-1.5h-0.6
	c-2.1-0.8-4-0.1-5.8,0.8c-1.9,0.6-3.5,1.3-4.8,2.7c-0.1,0.1-0.2,0.1-0.3,0.2c-0.1-0.9-0.3-1.8-0.4-2.8c-0.7-2.4-2-4.7-3.9-6.4
	c-1-0.8-2-1.4-3-2.1c-2.3-1.3-4.9-1.8-7.6-1.8h-0.6c-2.1-0.8-4,0.1-5.8,1c-1.9,0.6-3.5,1.4-4.8,2.8c-1.4,1.3-2.5,2.9-3.1,4.7
	c-0.1,0.2-0.3,0.5-0.4,0.8c-2.4-1-4.9-1.5-7.5-1.5c-2.7,0-5.2,1-7.2,1.9c-0.4,0-0.9,0.5-1.3,0.5h-0.6c-2.1-0.8-4-0.2-5.8,0.7
	c-1.9,0.6-3.5,1.2-4.8,2.6c-2.2,2.3-3.7,5.2-4.3,8.2c-6.3,1.5-10.8,5.1-11.6,9.3c-1.9-1.5-4.3-2.3-6.8-2.2c-0.3,0-0.7,0-1,0
	c-2.7-2.4-6.2-3.7-9.8-3.7c-7.3,0-14.3,5.8-14.9,12.9c-0.9-0.2-1.9-0.4-2.8-0.4c-2.4-3.6-6.5-5.7-10.8-5.7c-3.5,0-6.3,1.5-9.2,3.9
	c-2.9-2.4-5.8-3.9-9.2-3.9c-4.3,0-8.3,2.1-10.7,5.7c-1,0.1-1.9,0.2-2.8,0.4c-0.7-7.1-7.7-12.9-15-12.9c-3.6,0-7.1,1.3-9.8,3.7
	c-0.3,0-0.7,0-1,0c-2.4,0-4.8,0.8-6.8,2.2c-0.7-4.3-5.3-7.8-11.6-9.3c-0.2-1.3-0.6-2.5-1.2-3.6c-0.6-1.8-1.7-3.4-3.1-4.6
	c-1.4-1.4-3-2.1-4.8-2.6c-1.8-0.9-3.7-1.5-5.8-0.7H319c-0.4,0-0.9-0.5-1.3-0.5c-2-0.9-4.5-1.9-7.2-1.9c-2.6,0-5.1,0.5-7.5,1.5
	c-0.1-0.3-0.2-0.5-0.4-0.8c-0.6-1.8-1.7-3.4-3.1-4.7c-1.4-1.4-3-2.2-4.8-2.8c-1.8-0.9-3.7-1.8-5.8-1h-0.6c-2.7,0-5.2,0.4-7.6,1.8
	c-1,0.8-2,1.4-3,2.1c-1.8,1.8-3.2,4-3.9,6.4c-0.1,0.9-0.3,1.8-0.4,2.8c-0.1-0.1-0.2-0.1-0.3-0.2c-1.4-1.4-3-2.1-4.8-2.7
	c-1.8-0.9-3.7-1.6-5.8-0.8h-0.6c-2.7,0-5.2,0.2-7.6,1.5c-1,0.8-2,1.2-3,1.9c-1.5,1.5-2.7,3.2-3.4,5.2h-0.1c-1.5,0-2.9,0.2-4.4,0.6
	c-1-0.7-2.1-1-3.3-1.3c-1.8-0.9-3.7-1.6-5.8-0.9h-0.6c-2.7,0-5.2,0.3-7.6,1.6c-1,0.8-2,1.2-3,2c-1.8,1.8-3.2,4-3.9,6.4
	c-0.1,0.9-0.2,1.8-0.4,2.6c-0.3,0.2-0.5,0.5-0.8,0.8c-1.8-1.1-3.8-1.6-5.8-1.6c-0.4,0-0.8,0-1.2,0.1l-0.5-0.6
	c-1.9-1.8-4.1-3.1-6.6-3.8l-4-0.5c-1.2,0-2.3,0.1-3.4,0.4c-1.9-4.8-7.9-8.3-15-8.3c-4.9,0-9.3,1.7-12.2,4.3
	c-1.3-2.8-4.3-5.1-8.2-6.4c0-0.2,0-0.3,0-0.5c0-4.1-2.7-7.6-6.6-9.2c-2.1-5.5-8.8-9.5-16.8-9.5c-1.3,0-2.7,0.1-4,0.3
	c0.7-1.4,1-2.9,1-4.4c0-6.3-5.8-11.4-13-11.4c-0.3,0-0.5,0-0.8,0c-0.8-4.6-4.2-8.5-8.5-10.6c0.3-0.7,0.6-1.4,0.8-2.1l0.5-3.9
	c0-2.6-0.7-5.1-2-7.4l-2.3-3c-1.1-1.2-2.5-2.1-4-2.7c-1-5.7-6.8-10.2-12.7-10.2c-4.3,0-8.3,2.1-10.6,5.7c-2.3,0.1-4.5,0.8-6.4,1.9
	l-2.9,2.2c-1.4,1.2-2.4,2.8-3,4.5c-0.9,1.7-1.3,3.5-1.3,5.4c0,0.2,0,0.4,0,0.6c-0.2,0.1-0.5,0.3-0.7,0.5c-0.8-0.3-1.5-0.6-2.3-0.8
	l-4-0.5c-1.8-0.1-3.6,0.3-5.2,1c-0.6-0.1-1.2-0.1-1.8-0.1c-1.4,0-2.7,0.1-4,0.4c0.5-1.2,0.8-2.5,0.8-3.8c0-6.5-7.3-11.9-16.3-11.9
	c-6.1,0-11.5,2.5-14.2,6.1c-2.7-1.8-6-2.8-9.3-2.8c-4.2,0-8.2,1.5-11.3,4.4v783h802.6V297C799.5,294.1,795.5,292.6,791.3,292.6z"/>
</svg>
